<svg viewBox="0 0 24 24" xmlns="http://www.w3.org/2000/svg">
  <defs>
    <symbol id="customer-service" viewBox="0 0 512.003 512.003">
        <path style="fill:#707487;" d="M132.422,247.187l-12.775-6.388c-2.99-1.495-4.879-4.551-4.879-7.895V199.68 c0-3.343,1.889-6.4,4.879-7.895l12.775-6.388V247.187z"/>
        <polygon style="fill:#E6AF78;" points="335.446,361.939 335.446,300.15 176.558,300.15 176.558,361.939 256.002,432.556 "/>
        <path style="fill:#B4E1FA;" d="M458.286,390.843l-109.229-25.701c-1.65-0.388-3.167-1.047-4.587-1.846l-88.469,51.607L170.982,360.8 c-2.201,2.072-4.933,3.612-8.036,4.343L53.717,390.844c-15.95,3.753-27.222,17.985-27.222,34.37v69.134 c0,9.751,7.904,17.654,17.654,17.654h423.702c9.751,0,17.654-7.904,17.654-17.654v-69.134 C485.507,408.828,474.235,394.595,458.286,390.843z"/>
        <path style="fill:#D29B6E;" d="M176.558,300.15v65.193c100.078,36.057,158.888-54.185,158.888-54.185v-11.009H176.558V300.15z"/>
        <path style="fill:#F0C087;" d="M141.249,97.127l7.692,169.228c0.718,15.809,8.47,30.47,21.13,39.965l36.498,27.374
            c9.168,6.875,20.318,10.593,31.778,10.593h35.309c11.46,0,22.61-3.717,31.778-10.593l36.498-27.374
            c12.66-9.496,20.412-24.155,21.13-39.965l7.692-169.228C370.753,97.127,141.249,97.127,141.249,97.127z"/>
        <path style="fill:#E6AF78;" d="M229.521,132.435c35.309,0,88.271-8.827,100.833-35.309H141.249l7.692,169.228
            c0.718,15.809,8.47,30.469,21.131,39.965l36.498,27.374c9.168,6.875,20.318,10.593,31.778,10.593h17.654
            c-17.654,0-52.963-35.309-52.963-79.444c0-21.586,0-79.444,0-105.926C203.039,150.089,211.866,132.435,229.521,132.435z"/>
        <g>
            <path style="fill:#A0D2F0;" d="M91.3,454.714l-57.199-51.382c-4.793,6.069-7.603,13.706-7.603,21.882v69.134
                c0,9.751,7.904,17.654,17.654,17.654h61.79v-24.454C105.941,475.021,100.618,463.084,91.3,454.714z"/>
            <path style="fill:#A0D2F0;" d="M420.705,454.714l57.199-51.382c4.793,6.069,7.603,13.706,7.603,21.882v69.134
                c0,9.751-7.904,17.654-17.654,17.654h-61.79v-24.454C406.063,475.021,411.386,463.084,420.705,454.714z"/>
        </g>
        <polygon style="fill:#5B5D6E;" points="278.07,512.001 233.934,512.001 239.451,432.556 272.553,432.556"/>
        <path style="fill:#515262;" d="M278.07,414.902h-44.136v16.613c0,5.451,4.418,9.869,9.869,9.869H268.2 c5.451,0,9.869-4.418,9.869-9.869v-16.613H278.07z"/>
        <g>
            <path style="fill:#A0D2F0;" d="M175.319,342.287l80.684,72.615c0,0-22.596,11.407-50.48,34.398 c-5.752,4.742-14.453,2.821-17.538-3.966l-37.907-83.394l11.992-17.987C165.054,339.473,171.318,338.687,175.319,342.287z"/>
            <path style="fill:#A0D2F0;" d="M336.686,342.287l-80.684,72.615c0,0,22.596,11.407,50.48,34.398 c5.752,4.742,14.453,2.821,17.538-3.966l37.907-83.394l-11.992-17.987C346.95,339.473,340.686,338.687,336.686,342.287z"/>
        </g>
        <path style="fill:#785550;" d="M309.516,38.647l8.275,58.48c37.775,7.555,43.219,66.837,44.003,83.769
            c0.142,3.073,1.123,6.04,2.79,8.625l14.413,22.358c0,0-4.933-36.964,17.654-61.79C396.652,150.089,404.408,3.338,309.516,38.647z"/>
        <path style="fill:#694B4B;" d="M149.709,22.831l13.056,8.919c-59.031,43.584-47.998,118.339-47.998,118.339
            c17.654,17.654,17.654,61.79,17.654,61.79l17.654-17.654c0,0-6.813-50.998,26.481-70.617c30.895-18.206,57.928-8.827,85.513-8.827
            c73.927,0,94.616-27.861,91.03-61.79c-1.856-17.556-28.698-54.126-97.098-52.963C228.397,0.497,176.558,8.855,149.709,22.831z"/>
        <path style="fill:#5A4146;" d="M144.559,107.057c0,0-9.379-36.964,18.206-75.306c-59.031,43.584-47.998,118.339-47.998,118.339
            c17.654,17.654,17.654,61.79,17.654,61.79l17.654-17.654c0,0-6.813-50.998,26.481-70.617c30.895-18.206,57.928-8.827,85.513-8.827
            c12.023,0,22.5-0.805,31.832-2.185C236.969,114.505,203.408,71.38,144.559,107.057z"/>
        <path style="fill:#5B5D6E;" d="M145.663,256.014h-13.241c-4.875,0-8.827-3.952-8.827-8.827v-61.79c0-4.875,3.952-8.827,8.827-8.827
            h13.241c2.437,0,4.414,1.976,4.414,4.414V251.6C150.076,254.039,148.1,256.014,145.663,256.014z"/>
        <path style="fill:#464655;" d="M291.311,306.77v-13.241c59.743,0,72.824-33.453,72.824-46.342h13.241
            C377.375,263.76,361.914,306.77,291.311,306.77z"/>
        <path style="fill:#5B5D6E;" d="M291.311,308.977h-8.827c-4.875,0-8.827-3.952-8.827-8.827l0,0c0-4.875,3.952-8.827,8.827-8.827
            h8.827c4.875,0,8.827,3.952,8.827,8.827l0,0C300.138,305.025,296.185,308.977,291.311,308.977z"/>
        <path style="fill:#707487;" d="M379.582,247.187l12.775-6.388c2.99-1.495,4.879-4.551,4.879-7.895V199.68
            c0-3.343-1.889-6.4-4.879-7.895l-12.775-6.388V247.187z"/>
        <path style="fill:#5B5D6E;" d="M366.341,256.014h13.241c4.875,0,8.827-3.952,8.827-8.827v-61.79c0-4.875-3.952-8.827-8.827-8.827
            h-13.241c-2.437,0-4.414,1.976-4.414,4.414V251.6C361.928,254.039,363.904,256.014,366.341,256.014z"/>
        <path style="fill:#A0D2F0;" d="M370.755,494.346h-61.79c-4.875,0-8.827,3.952-8.827,8.827v8.827h79.444v-8.827
            C379.582,498.299,375.629,494.346,370.755,494.346z"/>
    </symbol>

    <symbol id="statistics" viewBox="0 0 64 64">
        <g>
            <rect x="2" y="47" style="fill:#998675;" width="5" height="2"/>
        </g>
        <g>
            <rect x="2" y="41" style="fill:#998675;" width="5" height="2"/>
        </g>
        <g>
            <rect x="2" y="35" style="fill:#998675;" width="5" height="2"/>
        </g>
        <g>
            <rect x="2" y="29" style="fill:#998675;" width="5" height="2"/>
        </g>
        <g>
            <rect x="2" y="23" style="fill:#998675;" width="5" height="2"/>
        </g>
        <g>
            <rect x="2" y="17" style="fill:#998675;" width="5" height="2"/>
        </g>
        <g>
            <rect x="2" y="11" style="fill:#998675;" width="5" height="2"/>
        </g>
        <g>
            <rect x="2" y="5" style="fill:#998675;" width="5" height="2"/>
        </g>
        <rect x="52" y="58" style="fill:#486B03;" width="4" height="4"/>
        <rect x="52" y="58" style="fill:#A1BF34;" width="2" height="4"/>
        <rect x="42" y="58" style="fill:#A92070;" width="4" height="4"/>
        <rect x="42" y="58" style="fill:#EE2375;" width="2" height="4"/>
        <rect x="32" y="58" style="fill:#45637F;" width="4" height="4"/>
        <rect x="32" y="58" style="fill:#ABBCCC;" width="2" height="4"/>
        <rect x="22" y="58" style="fill:#EA9674;" width="4" height="4"/>
        <rect x="22" y="58" style="fill:#FCBC80;" width="2" height="4"/>
        <rect x="12" y="58" style="fill:#8B4B62;" width="4" height="4"/>
        <rect x="12" y="58" style="fill:#BB6F6B;" width="2" height="4"/>
        <polyline style="fill:#486B03;" points="51,54 51,18 55,18 55,54  "/>
        <rect x="51" y="18" style="fill:#A1BF34;" width="2" height="36"/>
        <polyline style="fill:#A92070;" points="42,54 42,24 46,24 46,54  "/>
        <rect x="42" y="24" style="fill:#EE2375;" width="2" height="30"/>
        <polyline style="fill:#45637F;" points="32,54 32,33 36,33 36,54  "/>
        <rect x="32" y="33" style="fill:#ABBCCC;" width="2" height="21"/>
        <polyline style="fill:#EA9674;" points="22,54 22,36 26,36 26,54  "/>
        <rect x="22" y="36" style="fill:#FCBC80;" width="2" height="18"/>
        <rect x="12" y="40" style="fill:#8B4B62;" width="4" height="14"/>
        <rect x="12" y="40" style="fill:#BB6F6B;" width="2" height="14"/>
        <g>
            <path style="fill:#736357;" d="M62,55H7c-0.552,0-1-0.448-1-1V2h2v51h54V55z"/>
        </g>
        <g>
            <path style="fill:#534741;" d="M13.848,37.53l-1.696-1.06l10-16c0.157-0.251,0.416-0.419,0.709-0.46    c0.292-0.038,0.589,0.049,0.808,0.247l9.045,8.14l9.401-17.863c0.239-0.453,0.782-0.65,1.256-0.463l9.247,3.699l7.55-11.325    l1.664,1.109l-8,12c-0.262,0.394-0.762,0.551-1.204,0.374l-9.163-3.666l-9.581,18.203c-0.144,0.273-0.405,0.464-0.709,0.519    c-0.303,0.057-0.616-0.034-0.845-0.241l-9.114-8.203L13.848,37.53z"/>
        </g>
    </symbol>


    <symbol id="presentation" viewBox="0 0 64 64">
        <path style="fill:#1A1A1A;" d="M33,54.237V51h-2v3.237c-1.174,0.54-2,1.992-2,3.763c0,2.243,1.317,4,3,4s3-1.757,3-4   C35,56.229,34.174,54.777,33,54.237z M32,60c-0.408,0-1-0.779-1-2s0.592-2,1-2s1,0.779,1,2S32.408,60,32,60z"/>
        <rect x="6" y="8" style="fill:#B3B3B3;" width="52" height="40"/>
        <rect x="6" y="8" style="fill:#CCCCCC;" width="49" height="40"/>
        <polygon style="fill:#A83738;" points="35,15 42,15 42,12 47,17 42,22 42,19 35,19  "/>
        <polygon style="fill:#D95242;" points="42,19 44,17 42,15 39,15 35,15 35,19 39,19  "/>
        <path style="fill:#F7931E;" d="M42,27l10-8l0.211,0.422C53.388,21.775,54,24.369,54,27v0c0,2.631-0.612,5.225-1.789,7.578L52,35   L42,27z"/>
        <path style="fill:#FBB03B;" d="M49.801,33.241C50.587,31.258,51,29.142,51,27c0-2.142-0.413-4.258-1.199-6.241L42,27L49.801,33.241   z"/>
        <circle style="fill:#EAA07D;" cx="21" cy="23" r="11"/>
        <ellipse style="fill:#EBB599;" cx="22.5" cy="23" rx="9.5" ry="10.886"/>
        <path style="fill:#233656;" d="M29.683,29.753L21,23l6.102-9.153l0.001-0.001C30.055,15.819,32,19.182,32,23   C32,25.546,31.135,27.89,29.683,29.753L29.683,29.753z"/>
        <path style="fill:#415B76;" d="M27.691,28.204C28.524,26.654,29,24.883,29,23c0-2.912-1.137-5.555-2.985-7.523L21,23L27.691,28.204   z"/>
        <path style="fill:#333333;" d="M60,52H4c-1.105,0-2-0.895-2-2v0c0-1.105,0.895-2,2-2h56c1.105,0,2,0.895,2,2v0   C62,51.105,61.105,52,60,52z"/>
        <path style="fill:#4D4D4D;" d="M60,50H4c-0.738,0-1.376,0.405-1.723,1C2.624,51.595,3.262,52,4,52h56c0.738,0,1.376-0.405,1.723-1   C61.376,50.405,60.738,50,60,50z"/>
        <rect x="2" y="2" style="fill:#333333;" width="60" height="6"/>
        <rect x="2" y="5" style="fill:#4D4D4D;" width="60" height="3"/>
        <g>
            <rect x="40.5" y="29.237" transform="matrix(0.7071 -0.7071 0.7071 0.7071 -20.0183 42.6716)" style="fill:#999999;" width="2" height="32.527"/>
        </g>
        <rect x="52.379" y="55.672" transform="matrix(0.7071 -0.7071 0.7071 0.7071 -25.4031 55.6716)" style="fill:#1A1A1A;" width="4.243" height="5.657"/>
        <rect x="51.939" y="56.732" transform="matrix(0.7071 -0.7071 0.7071 0.7071 -25.8424 54.6109)" style="fill:#333333;" width="2.121" height="3.536"/>
    </symbol>

</svg>
