<svg xmlns="http://www.w3.org/2000/svg" style="display: none;">
    <symbol id="route" viewBox="0 0 64.048 64.048"><title>route</title><path id="path-1_29_" style="fill:#E56A77;" d="M39.379,16.282c0.367-1.04,1.07-2.647,1.07-3.814c0-5.504-4.458-9.966-9.958-9.966 s-9.959,4.462-9.959,9.966c0,1.167,0.702,2.774,1.07,3.814l7.815,15.615c0.437,0.872,1.681,0.873,2.118,0.001L39.379,16.282z"/><path id="path-2_29_" style="fill:#EDC951;" d="M32.642,7.752c1.815,0.822,3.078,2.65,3.078,4.773c0,2.891-2.342,5.234-5.23,5.234 c-2.89,0-5.232-2.343-5.232-5.234c0-2.095,1.231-3.903,3.008-4.74l0,0"/><path id="path-3_29_" style="fill:#EDC951;" d="M62.154,58.602c0,2.732-2.213,4.946-4.943,4.946c-2.729,0-4.942-2.214-4.942-4.946 c0-2.731,2.213-4.946,4.942-4.946C59.942,53.656,62.154,55.871,62.154,58.602z"/><path id="path-4_29_" style="fill:#EDC951;" d="M35.227,48.617c0,2.731-2.213,4.946-4.943,4.946c-2.729,0-4.941-2.215-4.941-4.946 c0-2.732,2.212-4.946,4.941-4.946C33.014,43.671,35.227,45.885,35.227,48.617z"/><path id="path-5_29_" style="fill:#EDC951;" d="M16.278,57.599c0,2.731-2.213,4.945-4.943,4.945c-2.729,0-4.942-2.214-4.942-4.945 c0-2.732,2.213-4.946,4.942-4.946C14.066,52.653,16.278,54.867,16.278,57.599z"/><path id="path-6_28_" d="M27.476,33.052L27.476,33.052c-1.023-0.001-1.942-0.569-2.401-1.484L17.26,15.954 c-0.028-0.056-0.053-0.113-0.073-0.172c-0.065-0.183-0.141-0.385-0.222-0.6c-0.416-1.109-0.934-2.491-0.934-3.715 C16.031,5.144,21.172,0,27.49,0c6.319,0,11.46,5.144,11.46,11.467c0,1.222-0.517,2.599-0.932,3.707 c-0.082,0.217-0.159,0.421-0.225,0.607c-0.02,0.06-0.046,0.118-0.074,0.174l-7.844,15.616 C29.417,32.485,28.497,33.052,27.476,33.052z M19.983,14.69l7.493,14.972l7.52-14.972c0.064-0.178,0.136-0.37,0.212-0.571 c0.313-0.834,0.74-1.975,0.74-2.652c0-4.667-3.794-8.465-8.459-8.465c-4.664,0-8.458,3.798-8.458,8.465 c0,0.68,0.429,1.824,0.743,2.66C19.85,14.326,19.92,14.515,19.983,14.69z"/><path id="path-7_27_" d="M27.49,18.26c-3.711,0-6.731-3.022-6.731-6.736c0-2.598,1.519-4.992,3.869-6.098 c0.753-0.353,1.644-0.03,1.996,0.72c0.353,0.75,0.031,1.644-0.718,1.997c-1.304,0.613-2.147,1.941-2.147,3.381 c0,2.059,1.674,3.734,3.731,3.734s3.731-1.675,3.731-3.734c0-1.465-0.862-2.801-2.196-3.405c-0.755-0.341-1.09-1.23-0.749-1.986 c0.341-0.754,1.227-1.091,1.985-0.749c2.405,1.088,3.96,3.498,3.96,6.14C34.221,15.238,31.201,18.26,27.49,18.26z"/><path id="path-8_25_" d="M54.212,64.048c-3.553,0-6.442-2.892-6.442-6.446c0-3.555,2.889-6.447,6.442-6.447 c3.553,0,6.443,2.892,6.443,6.447C60.654,61.156,57.764,64.048,54.212,64.048z M54.212,54.157c-1.898,0-3.442,1.545-3.442,3.445 c0,1.899,1.544,3.444,3.442,3.444c1.899,0,3.443-1.545,3.443-3.444C57.654,55.702,56.111,54.157,54.212,54.157z"/><path id="path-9_21_" d="M27.284,54.063c-3.551,0-6.441-2.892-6.441-6.447s2.89-6.447,6.441-6.447 c3.553,0,6.443,2.892,6.443,6.447S30.837,54.063,27.284,54.063z M27.284,44.171c-1.897,0-3.441,1.546-3.441,3.445 c0,1.899,1.544,3.445,3.441,3.445c1.899,0,3.443-1.546,3.443-3.445C30.726,45.717,29.183,44.171,27.284,44.171z"/><path id="path-10_17_" d="M8.335,63.045c-3.552,0-6.442-2.892-6.442-6.447c0-3.555,2.89-6.446,6.442-6.446 c3.553,0,6.443,2.891,6.443,6.446C14.779,60.153,11.889,63.045,8.335,63.045z M8.335,53.154c-1.898,0-3.442,1.545-3.442,3.444 c0,1.899,1.544,3.445,3.442,3.445c1.899,0,3.443-1.546,3.443-3.445C11.779,54.699,10.234,53.154,8.335,53.154z"/><path id="path-11_16_" d="M12.557,55.535c-0.559,0-1.096-0.314-1.354-0.852c-0.358-0.748-0.043-1.644,0.705-2.003l10.053-4.825 c0.745-0.358,1.643-0.044,2.001,0.705c0.359,0.747,0.043,1.644-0.704,2.002l-10.054,4.825 C12.995,55.488,12.774,55.535,12.557,55.535z"/><path id="path-12_15_" d="M49.522,57.537c-0.194,0-0.391-0.038-0.58-0.118l-17.421-7.331c-0.764-0.321-1.123-1.201-0.802-1.965 c0.321-0.764,1.2-1.124,1.964-0.802l17.421,7.33c0.763,0.322,1.123,1.202,0.802,1.966C50.665,57.191,50.109,57.537,49.522,57.537z "/><path id="path-13_13_" d="M27.285,44.401c-0.017,0-0.034,0-0.051,0c-0.827,0-1.477-0.838-1.449-1.666l0.207-6.189 c0.028-0.829,0.746-1.505,1.549-1.478c0.827,0.027,1.477,0.707,1.449,1.536l-0.207,6.239 C28.756,43.654,28.09,44.401,27.285,44.401z"/></symbol>
    <symbol id="car" viewBox="0 0 65 65"><title>car</title><path id="path-1_31_" style="fill:#FF917B;" d="M12,46.611H9.751C7.138,46.611,5,44.472,5,41.857v-3.251 c0-4.422,3.582-8.006,8-8.006h44c4.418,0,8,3.584,8,8.006v3.597c0,2.425-1.982,4.408-4.404,4.408H59l0,0"/><path id="path-2_31_" style="fill:#53ECF4;" d="M15.261,29.604c0-6.985,7.544-12.647,16.849-12.647 c9.306,0,16.762,6.335,16.85,12.647l0,0"/><path id="path-3_31_" style="fill:#EDC951;" d="M59.803,44.171c0,3.239-2.625,5.865-5.863,5.865c-3.237,0-5.862-2.626-5.862-5.865 c0-3.241,2.625-5.867,5.862-5.867C57.178,38.304,59.803,40.93,59.803,44.171z"/><path id="path-4_31_" style="fill:#EDC951;" d="M24.665,46.172c0,3.24-2.625,5.866-5.862,5.866c-3.238,0-5.863-2.626-5.863-5.866 s2.625-5.867,5.863-5.867C22.04,40.305,24.665,42.932,24.665,46.172z"/><path id="path-5_31_" d="M58.218,45.772c-0.828,0-1.5-0.673-1.5-1.501c0-0.83,0.672-1.501,1.5-1.501c0.44,0,1.782,0,1.782-2.568 v-4.098c0-3.587-2.916-6.505-6.5-6.505h-44c-3.584,0-6.5,2.918-6.5,6.505v3.751c0,1.518,1.234,2.753,2.751,2.753H8 c0.828,0,1.5,0.672,1.5,1.501c0,0.829-0.672,1.501-1.5,1.501H5.751C2.58,45.61,0,43.029,0,39.855v-3.751 c0-5.242,4.262-9.507,9.5-9.507h44c5.238,0,9.5,4.265,9.5,9.507v4.098C63,43.586,61.123,45.772,58.218,45.772z"/><path id="path-6_29_" d="M45,45.61H21c-0.828,0-1.5-0.672-1.5-1.501c0-0.829,0.672-1.501,1.5-1.501h24 c0.828,0,1.5,0.672,1.5,1.501C46.5,44.938,45.828,45.61,45,45.61z"/><path id="path-7_28_" d="M44.96,28.598c-0.819,0-1.488-0.906-1.5-1.728c-0.073-5.271-6.653-11.29-15.35-11.29 c-8.464,0-15.349,4.938-15.349,11.083c0,0.829-0.672,1.47-1.5,1.47s-1.5-0.687-1.5-1.516c0-7.801,8.231-14.155,18.349-14.155 c9.67,0,18.245,6.845,18.35,14.371c0.012,0.828-0.65,0.765-1.48,1.765C44.974,28.598,44.967,28.598,44.96,28.598z"/><path id="path-8_26_" d="M51.94,52.538c-4.059,0-7.362-3.305-7.362-7.367s3.303-7.367,7.362-7.367c4.06,0,7.363,3.305,7.363,7.367 S56,52.538,51.94,52.538z M51.94,40.806c-2.405,0-4.362,1.958-4.362,4.365s1.957,4.365,4.362,4.365 c2.406,0,4.363-1.958,4.363-4.365S54.346,40.806,51.94,40.806z"/><path id="path-9_22_" d="M14.803,51.538c-4.06,0-7.363-3.306-7.363-7.367c0-4.063,3.303-7.368,7.363-7.368 c4.059,0,7.362,3.305,7.362,7.368C22.165,48.232,18.862,51.538,14.803,51.538z M14.803,39.805c-2.406,0-4.363,1.959-4.363,4.366 s1.957,4.364,4.363,4.364c2.405,0,4.362-1.957,4.362-4.364S17.208,39.805,14.803,39.805z"/><path id="path-10_18_" d="M27.5,29.099c-0.828,0-1.5-0.673-1.5-1.501V14.589c0-0.83,0.672-1.502,1.5-1.502s1.5,0.672,1.5,1.502 v13.009C29,28.426,28.328,29.099,27.5,29.099z"/><path id="path-11_17_" d="M61,35.603h-4c-0.828,0-1.5-0.672-1.5-1.501c0-0.829,0.672-1.501,1.5-1.501h4 c0.828,0,1.5,0.672,1.5,1.501C62.5,34.931,61.828,35.603,61,35.603z"/></symbol>
    <symbol id="bike" viewBox="0 0 63.5 63.5"><title>bicycle</title><path id="path-1_36_" style="fill:#E56A77;" d="M63.5,40.629c0,7.119-5.767,12.891-12.881,12.891 c-7.115,0-12.882-5.772-12.882-12.891c0-7.12,5.767-12.891,12.882-12.891C57.733,27.739,63.5,33.509,63.5,40.629z"/><path id="path-2_36_" style="fill:#E56A77;" d="M29.264,40.629c0,7.119-5.767,12.891-12.882,12.891 C9.268,53.52,3.5,47.748,3.5,40.629c0-7.12,5.768-12.891,12.882-12.891C23.497,27.739,29.264,33.509,29.264,40.629z"/><path id="path-3_34_" style="fill:#53ECF4;" d="M54.908,40.629c0,2.371-1.92,4.293-4.289,4.293c-2.37,0-4.29-1.922-4.29-4.293 c0-2.371,1.92-4.293,4.29-4.293C52.988,36.336,54.908,38.258,54.908,40.629z"/><path id="path-4_34_" style="fill:#53ECF4;" d="M20.672,40.629c0,2.371-1.921,4.293-4.29,4.293S12.093,43,12.093,40.629 c0-2.371,1.92-4.293,4.289-4.293S20.672,38.258,20.672,40.629z"/><path id="path-5_34_" d="M48.619,45.422c-3.193,0-5.79-2.599-5.79-5.794c0-3.194,2.597-5.793,5.79-5.793 c3.192,0,5.79,2.599,5.79,5.793C54.409,42.823,51.811,45.422,48.619,45.422z M48.619,36.837c-1.539,0-2.79,1.252-2.79,2.791 c0,1.539,1.251,2.792,2.79,2.792c1.538,0,2.79-1.253,2.79-2.792C51.409,38.09,50.157,36.837,48.619,36.837z"/><path id="path-6_32_" d="M48.619,54.02c-7.931,0-14.382-6.456-14.382-14.392s6.451-14.392,14.382-14.392 c7.93,0,14.381,6.456,14.381,14.392S56.549,54.02,48.619,54.02z M48.619,28.239c-6.276,0-11.382,5.11-11.382,11.39 c0,6.281,5.106,11.39,11.382,11.39c6.275,0,11.381-5.109,11.381-11.39C60,33.348,54.894,28.239,48.619,28.239z"/><path id="path-7_31_" d="M14.382,45.422c-3.192,0-5.789-2.599-5.789-5.794c0-3.194,2.597-5.793,5.789-5.793 c3.193,0,5.79,2.599,5.79,5.793C20.172,42.823,17.575,45.422,14.382,45.422z M14.382,36.837c-1.538,0-2.789,1.252-2.789,2.791 c0,1.539,1.251,2.792,2.789,2.792c1.539,0,2.79-1.253,2.79-2.792C17.172,38.09,15.921,36.837,14.382,36.837z"/><path id="path-8_29_" d="M14.382,54.02C6.452,54.02,0,47.564,0,39.628s6.452-14.392,14.382-14.392s14.382,6.456,14.382,14.392 S22.312,54.02,14.382,54.02z M14.382,28.239C8.106,28.239,3,33.348,3,39.628c0,6.281,5.106,11.39,11.382,11.39 s11.382-5.109,11.382-11.39C25.764,33.348,20.658,28.239,14.382,28.239z"/><path id="path-9_24_" d="M44.558,39c-0.785,0-1.445-0.611-1.496-1.405l-0.984-15.449l-4.325-10.599 c-0.189-0.462-0.135-0.989,0.143-1.404c0.279-0.415,0.746-0.664,1.246-0.664h6.225c0.583,0,1.114,0.339,1.36,0.868l1.69,3.638 c0.349,0.751,0.023,1.644-0.728,1.994c-0.75,0.349-1.643,0.023-1.993-0.729l-1.286-2.769h-3.036l3.574,8.757 c0.062,0.151,0.098,0.31,0.109,0.472l1,15.693c0.052,0.828-0.575,1.541-1.402,1.594C44.622,39,44.59,39,44.558,39z"/><path id="path-10_20_" d="M13.893,36.24c-0.334,0-0.67-0.111-0.949-0.339c-0.641-0.526-0.736-1.471-0.211-2.113l10.431-12.751 c0.285-0.348,0.711-0.55,1.161-0.55h18.734c0.829,0,1.5,0.672,1.5,1.501c0,0.829-0.671,1.501-1.5,1.501H25.035l-9.98,12.2 C14.758,36.052,14.328,36.24,13.893,36.24z"/><path id="path-11_19_" d="M35.059,39.5h-7c-0.828,0-1.5-0.672-1.5-1.501c0-0.829,0.672-1.501,1.5-1.501h7 c0.829,0,1.5,0.672,1.5,1.501C36.559,38.828,35.888,39.5,35.059,39.5z"/><path id="path-12_16_" d="M32.105,44.368c-0.673,0-1.284-0.455-1.454-1.137l-1.038-4.153c-0.201-0.804,0.288-1.619,1.092-1.82 c0.803-0.202,1.618,0.288,1.818,1.092l1.038,4.153c0.201,0.804-0.288,1.619-1.091,1.82C32.348,44.354,32.225,44.368,32.105,44.368 z"/><path id="path-13_14_" d="M24.582,23.345c-0.704,0-1.332-0.499-1.471-1.216l-0.662-3.412c-0.158-0.813,0.374-1.601,1.187-1.759 c0.812-0.158,1.6,0.374,1.758,1.188l0.662,3.411c0.158,0.814-0.374,1.602-1.187,1.76C24.773,23.337,24.677,23.345,24.582,23.345z"/><path id="path-14_11_" d="M26.059,15.984c0,1.381-1.119,2.501-2.5,2.501h-6c-1.38,0-2.5-1.12-2.5-2.501l0,0 c0-1.382,1.12-2.502,2.5-2.502h6C24.94,13.483,26.059,14.602,26.059,15.984L26.059,15.984z"/></symbol>
    <symbol id="train" viewBox="0 0 63.054 63.054"><title>train</title><path id="path-1_2_" style="fill:#FF917B;" d="M21.628,4.003H45.92c4.059,0,7.281,19.579,7.044,25.988l-2.009,17.845 c-0.17,0.556-2.578,5.202-5.491,5.202h-23.38c-2.913,0-5.321-2.451-5.491-5.36l-2.009-19.952 C14.346,23.671,17.569,4.003,21.628,4.003z"/><path id="path-2_2_" style="fill:#53ECF4;" d="M22.047,24.017c-0.133-3.002,1.672-14.01,3.947-14.01h15.559 c2.275,0,4.081,11.008,3.948,14.01H22.047z"/><path id="path-3_2_" style="fill:#EDC951;" d="M46.456,34.637c0,1.83-1.483,3.314-3.311,3.314c-1.829,0-3.312-1.484-3.312-3.314 s1.483-3.314,3.312-3.314C44.973,31.323,46.456,32.807,46.456,34.637z"/><path id="path-4_2_" style="fill:#EDC951;" d="M27.813,34.637c0,1.83-1.483,3.314-3.312,3.314c-1.828,0-3.311-1.484-3.311-3.314 s1.483-3.314,3.311-3.314C26.33,31.323,27.813,32.807,27.813,34.637z"/><path id="path-5_2_" d="M42.464,52.037h-23.38c-3.704,0-6.774-2.865-6.989-6.523l-2.004-20.015 C9.888,22.05,12.199,5.42,16.179,1.197C16.927,0.403,17.751,0,18.628,0H42.92c0.858,0,1.664,0.386,2.396,1.146 c3.897,4.046,6.357,20.99,6.147,26.649c-0.001,0.038-0.004,0.076-0.009,0.114l-2.008,17.72c-0.011,0.092-0.03,0.182-0.057,0.271 C49.166,46.628,46.443,52.037,42.464,52.037z M42.864,2.995L18.628,3.002c-2.319,0.803-5.83,17.415-5.547,22.26l2.004,20.014 c0.129,2.169,1.846,3.759,3.999,3.759h23.38c1.661,0,3.587-2.967,4.024-3.943l1.979-17.464 C48.719,20.259,45.317,3.848,42.864,2.995z"/><path id="path-6_2_" d="M42.501,23.017H19.047c-0.803,0-1.463-0.633-1.498-1.435c-0.116-2.607,1.181-12.179,3.609-14.718 c0.679-0.71,1.373-0.859,1.836-0.859h15.56c0.463,0,1.157,0.149,1.836,0.859c2.428,2.539,3.724,12.111,3.609,14.718 C43.964,22.384,43.303,23.017,42.501,23.017z M20.578,20.014H40.97c-0.252-3.632-1.629-9.854-2.676-11.007h-15.04 C22.207,10.16,20.83,16.382,20.578,20.014z"/><path id="path-7_2_" d="M40.145,37.45c-2.654,0-4.812-2.16-4.812-4.814c0-2.655,2.158-4.815,4.812-4.815 c2.653,0,4.811,2.16,4.811,4.815C44.956,35.29,42.798,37.45,40.145,37.45z M40.145,30.823c-0.999,0-1.812,0.813-1.812,1.813 c0,0.999,0.813,1.812,1.812,1.812c0.998,0,1.811-0.813,1.811-1.812C41.956,31.636,41.143,30.823,40.145,30.823z"/><path id="path-8_1_" d="M21.501,37.45c-2.653,0-4.811-2.16-4.811-4.814c0-2.655,2.158-4.815,4.811-4.815 c2.654,0,4.812,2.16,4.812,4.815C26.313,35.29,24.155,37.45,21.501,37.45z M21.501,30.823c-0.998,0-1.811,0.813-1.811,1.813 c0,0.999,0.813,1.812,1.811,1.812c0.999,0,1.812-0.813,1.812-1.812C23.313,31.636,22.5,30.823,21.501,30.823z"/><path id="path-9" d="M40.156,42.03h-20c-0.828,0-1.5-0.672-1.5-1.501c0-0.829,0.672-1.501,1.5-1.501h20 c0.829,0,1.5,0.672,1.5,1.501C41.656,41.358,40.985,42.03,40.156,42.03z"/><path id="path-10" d="M40.156,47.034h-20c-0.828,0-1.5-0.672-1.5-1.501c0-0.83,0.672-1.502,1.5-1.502h20 c0.829,0,1.5,0.672,1.5,1.502C41.656,46.362,40.985,47.034,40.156,47.034z"/><path id="path-11" d="M44.156,58.041h-28c-0.828,0-1.5-0.671-1.5-1.501c0-0.829,0.672-1.501,1.5-1.501h28 c0.829,0,1.5,0.672,1.5,1.501C45.656,57.37,44.985,58.041,44.156,58.041z"/><path id="path-12" d="M48.925,63.054c-0.42,0-0.837-0.175-1.134-0.518L39.02,52.419c-0.542-0.627-0.475-1.575,0.151-2.117 c0.624-0.544,1.572-0.477,2.116,0.15l8.77,10.117c0.543,0.627,0.476,1.574-0.15,2.118C49.623,62.933,49.273,63.054,48.925,63.054z "/><path id="path-13" d="M11.892,63.054c-0.348,0-0.698-0.121-0.982-0.367c-0.626-0.544-0.693-1.491-0.15-2.118l8.77-10.117 c0.544-0.627,1.492-0.694,2.116-0.15c0.626,0.542,0.693,1.49,0.151,2.117l-8.771,10.117 C12.729,62.879,12.312,63.054,11.892,63.054z"/></symbol>
    <symbol id="place" viewBox="0 0 63.044 63.044"><title>placeholder</title><path id="path-1_7_" style="fill:#81BDA4;" d="M52.032,30.036c0.736-2.079,2.139-5.29,2.139-7.621 c0-10.998-8.909-19.913-19.899-19.913c-10.991,0-19.899,8.915-19.899,19.913c0,2.331,1.404,5.542,2.139,7.621l15.616,31.2 c0.873,1.743,3.358,1.744,4.233,0.003L52.032,30.036z"/><path id="path-2_7_" style="fill:#EDC951;" d="M39.63,10.537c4.519,2.044,7.662,6.594,7.662,11.878 c0,7.196-5.829,13.03-13.02,13.03s-13.021-5.834-13.021-13.03c0-5.216,3.063-9.716,7.487-11.797l0,0"/><path id="path-3_7_" d="M30.272,35.945c-8.007,0-14.521-6.519-14.521-14.531c0-5.605,3.277-10.769,8.348-13.155 c0.752-0.353,1.643-0.031,1.996,0.719c0.352,0.75,0.03,1.645-0.719,1.997c-4.024,1.894-6.625,5.992-6.625,10.439 c0,6.357,5.168,11.529,11.521,11.529c6.352,0,11.52-5.172,11.52-11.529c0-4.521-2.661-8.647-6.78-10.51 c-0.755-0.342-1.09-1.231-0.749-1.987c0.342-0.755,1.228-1.091,1.985-0.749c5.191,2.348,8.544,7.548,8.544,13.246 C44.792,29.426,38.279,35.945,30.272,35.945z"/><path id="path-4_7_" d="M30.245,63.044L30.245,63.044c-1.472,0-2.797-0.818-3.458-2.136l-15.616-31.2 c-0.028-0.056-0.053-0.113-0.073-0.172c-0.133-0.375-0.288-0.789-0.453-1.228c-0.789-2.103-1.772-4.721-1.772-6.894 C8.873,9.606,18.473,0,30.272,0c11.8,0,21.399,9.606,21.399,21.414c0,2.173-0.982,4.791-1.771,6.894 c-0.165,0.439-0.321,0.853-0.454,1.228c-0.02,0.059-0.045,0.118-0.074,0.174L33.7,60.913 C33.04,62.228,31.716,63.044,30.245,63.044z M13.895,28.446l15.574,31.117c0.217,0.432,0.615,0.479,0.776,0.479l0,0 c0.161,0,0.559-0.046,0.776-0.478l15.63-31.119c0.131-0.368,0.281-0.769,0.44-1.193c0.704-1.875,1.58-4.21,1.58-5.838 c0-10.152-8.254-18.412-18.399-18.412s-18.399,8.26-18.399,18.412c0,1.628,0.876,3.963,1.58,5.838 C13.613,27.676,13.763,28.077,13.895,28.446z"/><path id="path-5_7_" d="M32.489,50.346l2.256-7.328c0.779-1.575-0.366-3.818-2.122-3.818h-4.494c-1.752,0-2.897,2.237-2.125,3.811 l2.238,7.129C29.108,51.903,31.618,52.106,32.489,50.346z"/></symbol>
    <symbol id="bus" viewBox="0 0 62.044 62.044"><title>bus</title><path id="path-1_12_" style="fill:#81BDA4;" d="M15.797,54.039c-2.617,0-6.275-2.762-6.275-5.381V13.029 c0-3.33,4.215-5.023,7.542-5.023h34.618c3.829,0,5.84,2.1,5.84,5.932v34.72c0,2.63-1.036,5.381-3.664,5.381H15.797z"/><path id="path-2_12_" style="fill:#FF917B;" d="M48.078,62.044h1.875c1.932,0,2.569-1.865,2.569-3.8v-4.205h-7v4.205 C45.522,60.179,46.144,62.044,48.078,62.044z"/><path id="path-3_12_" style="fill:#FF917B;" d="M16.078,62.044h1.875c1.924,0,2.569-1.874,2.569-3.8v-4.205h-7v4.205 C13.522,60.179,14.144,62.044,16.078,62.044z"/><path id="path-4_12_" style="fill:#FF917B;" d="M48.828,30.022H36.522V17.091l12.71,1.009c1.114,0,2.29,0.903,2.29,2.018v5.603 C51.522,27.922,51.028,30.022,48.828,30.022z"/><path id="path-5_12_" style="fill:#FF917B;" d="M29.522,30.022h-9.694c-2.201,0-5.306-2.1-5.306-4.301v-5.603 c0-1.115,0.672-2.018,1.785-2.018l13.215-1.009V30.022z"/><path id="path-6_11_" style="fill:#EDC951;" d="M23.033,41.566c0,1.945-1.575,3.521-3.519,3.521c-1.943,0-3.518-1.576-3.518-3.521 c0-1.944,1.575-3.521,3.518-3.521C21.458,38.045,23.033,39.622,23.033,41.566z"/><path id="path-7_11_" style="fill:#EDC951;" d="M53.958,41.566c0,1.945-1.577,3.521-3.52,3.521s-3.519-1.576-3.519-3.521 c0-1.944,1.576-3.521,3.519-3.521S53.958,39.622,53.958,41.566z"/><path id="path-8_10_" style="fill:#EDC951;" d="M40.522,8.006h-15V5.004c0-1.105,0.895-2.002,2-2.002h11c1.104,0,2,0.897,2,2.002 V8.006z"/><path id="path-9_8_" d="M50.858,54.039H12.797c-3.364,0-7.275-2.788-7.275-6.381v-35.63c0-4.202,4.417-7.024,8.542-7.024h34.618 c4.616,0,7.84,3.262,7.84,7.933v34.721C56.522,51.355,54.14,54.039,50.858,54.039z M14.064,8.006 c-2.621,0-5.542,1.652-5.542,4.022v35.63c0,1.708,2.448,3.378,4.275,3.378h38.061c1.84,0,2.664-1.697,2.664-3.378V12.937 c0-3.041-1.855-4.931-4.84-4.931H14.064z"/><path id="path-10_8_" d="M38.522,45.032h-15c-0.828,0-1.5-0.672-1.5-1.501c0-0.829,0.672-1.501,1.5-1.501h15 c0.828,0,1.5,0.672,1.5,1.501C40.022,44.36,39.35,45.032,38.522,45.032z"/><path id="path-11_8_" d="M38.522,41.029h-15c-0.828,0-1.5-0.672-1.5-1.501c0-0.829,0.672-1.501,1.5-1.501h15 c0.828,0,1.5,0.672,1.5,1.501C40.022,40.357,39.35,41.029,38.522,41.029z"/><path id="path-12_8_" d="M38.522,37.026h-15c-0.828,0-1.5-0.671-1.5-1.501c0-0.829,0.672-1.501,1.5-1.501h15 c0.828,0,1.5,0.672,1.5,1.501C40.022,36.355,39.35,37.026,38.522,37.026z"/><path id="path-13_6_" d="M16.514,45.588c-2.767,0-5.018-2.253-5.018-5.022s2.251-5.022,5.018-5.022 c2.768,0,5.019,2.253,5.019,5.022S19.282,45.588,16.514,45.588z M16.514,38.546c-1.113,0-2.018,0.906-2.018,2.02 c0,1.114,0.905,2.02,2.018,2.02s2.019-0.906,2.019-2.02C18.533,39.452,17.627,38.546,16.514,38.546z"/><path id="path-14_5_" d="M47.438,45.588c-2.768,0-5.019-2.253-5.019-5.022s2.251-5.022,5.019-5.022 c2.768,0,5.019,2.253,5.019,5.022S50.206,45.588,47.438,45.588z M47.438,38.546c-1.113,0-2.019,0.906-2.019,2.02 c0,1.114,0.906,2.02,2.019,2.02s2.019-0.906,2.019-2.02C49.457,39.452,48.551,38.546,47.438,38.546z"/><path id="path-15_5_" d="M47.048,62.044h-0.906c-2.721,0-4.62-1.974-4.62-4.801v-4.705c0-0.83,0.672-1.502,1.5-1.502h7 c0.828,0,1.5,0.672,1.5,1.502v4.705C51.522,60.115,49.724,62.044,47.048,62.044z M44.522,54.039v3.204 c0,0.672,0.211,1.799,1.62,1.799h0.906c0.365,0,1.474,0,1.474-1.799v-3.204H44.522z"/><path id="path-16_3_" d="M15.048,62.044h-0.906c-2.721,0-4.62-1.974-4.62-4.801v-4.705c0-0.83,0.672-1.502,1.5-1.502h7 c0.828,0,1.5,0.672,1.5,1.502v4.705C19.522,60.115,17.724,62.044,15.048,62.044z M12.522,54.039v3.204 c0,0.672,0.211,1.799,1.62,1.799h0.906c0.365,0,1.474,0,1.474-1.799v-3.204H12.522z"/><path id="path-17_2_" d="M45.828,30.022H34.022c-0.828,0-1.5-0.672-1.5-1.502V16.09c0-0.418,0.175-0.818,0.482-1.103 c0.308-0.283,0.722-0.427,1.136-0.393l12.659,1.005c1.991,0.036,3.723,1.665,3.723,3.518v5.603 C50.522,27.94,48.679,30.022,45.828,30.022z M35.522,27.019h10.306c0.506,0,1.694,0,1.694-2.299v-5.603 c0-0.162-0.397-0.517-0.79-0.517c-0.04,0-0.079-0.001-0.118-0.005l-11.092-0.88V27.019z"/><path id="path-18_1_" d="M27.022,30.022H16.828c-2.983,0-6.306-2.178-6.306-5.302v-5.603c0-1.983,1.38-3.484,3.221-3.518 l13.165-1.005c0.411-0.033,0.827,0.111,1.133,0.395c0.307,0.284,0.481,0.684,0.481,1.101v12.43 C28.522,29.35,27.85,30.022,27.022,30.022z M25.522,17.71l-11.6,0.886c-0.038,0.003-0.076,0.004-0.114,0.004 c-0.249,0-0.286,0.324-0.286,0.517v5.603c0,1.217,1.849,2.299,3.306,2.299h8.694V17.71z"/><path id="path-19_1_" d="M38.022,8.006h-15c-0.828,0-1.5-0.672-1.5-1.501V3.503c0-1.931,1.57-3.503,3.5-3.503h11 c1.93,0,3.5,1.572,3.5,3.503v3.002C39.522,7.334,38.85,8.006,38.022,8.006z M24.522,5.004h12V3.503c0-0.276-0.225-0.501-0.5-0.501 h-11c-0.271,0-0.5,0.23-0.5,0.501V5.004z"/><path id="path-20_1_" d="M55.022,36.526c-0.828,0-1.5-0.672-1.5-1.501v-14.51c0-0.829,0.672-1.501,1.5-1.501h3.806 c1.788,0,2.694,1.246,2.694,3.705v8.303c0,0.829-0.672,1.501-1.5,1.501s-1.5-0.672-1.5-1.501v-8.303 c0-0.331-0.012-0.554-0.028-0.703h-1.972v13.009C56.522,35.854,55.85,36.526,55.022,36.526z"/><path id="path-21_1_" d="M7.022,36.526c-0.828,0-1.5-0.672-1.5-1.501V22.016H4.828c-0.414,0-1.208,0.518-1.32,0.802l0.014,8.204 c0,0.829-0.672,1.501-1.5,1.501s-1.5-0.672-1.5-1.501v-8.303c0-2.149,2.572-3.705,4.306-3.705h2.194c0.828,0,1.5,0.672,1.5,1.501 v14.51C8.522,35.854,7.85,36.526,7.022,36.526z"/></symbol>
    <symbol id="airplane" viewBox="0 0 64.5 64.5"><title>airplane</title><path id="path-1_16_" style="fill:#53ECF4;" d="M57.089,35.957l7.411-2.445l-1.699-5.158l-20.668,0.959l-20.182,5.988L4.5,47.588 l1.699,5.158l7.411-2.445l0,0"/><path id="path-2_16_" style="fill:#EDC951;" d="M43.443,33.387c1.838,5.581-1.193,11.598-6.77,13.438 c-5.578,1.839-11.59-1.193-13.429-6.775c-1.839-5.582-0.019-15.273,5.559-17.113S41.603,27.805,43.443,33.387z"/><path id="path-3_16_" style="fill:#EDC951;" d="M56.566,36.08c0.506,1.533-0.327,3.186-1.859,3.691 c-1.532,0.506-3.184-0.327-3.689-1.861c-0.504-1.533,0.328-3.186,1.86-3.691C54.41,33.713,56.061,34.547,56.566,36.08z"/><path id="path-4_16_" style="fill:#EDC951;" d="M14.853,49.842c0.537,1.63,2.293,2.516,3.922,1.979 c1.629-0.538,2.515-2.295,1.978-3.926c-0.538-1.63-2.294-2.516-3.923-1.979C15.201,46.454,14.316,48.212,14.853,49.842z"/><path id="path-5_16_" style="fill:#EDC951;" d="M34.746,23.626l-7.272-9.273c-0.886-1.132-2.701-0.547-2.762,0.89l-0.515,12.263 l0,0"/><path id="path-6_15_" d="M30.341,47.863c-5.247,0-9.877-3.353-11.522-8.344c-1.009-3.064-1.018-7.213-0.023-10.828 c1.176-4.272,3.498-7.178,6.537-8.18c0.777-0.256,1.601-0.386,2.452-0.386c5.836,0,12.249,6.225,14.083,11.791 c2.094,6.359-1.372,13.237-7.726,15.333C32.909,47.656,31.63,47.863,30.341,47.863z M27.785,23.127 c-0.531,0-1.04,0.079-1.512,0.235c-2.026,0.668-3.697,2.901-4.585,6.126c-0.846,3.076-0.854,6.559-0.019,9.091 c1.237,3.758,4.722,6.282,8.672,6.282c0.969,0,1.932-0.156,2.862-0.463c4.783-1.578,7.392-6.755,5.815-11.543 C37.566,28.449,32.232,23.127,27.785,23.127z"/><path id="path-7_15_" d="M17.527,48.52c-0.63,0-1.217-0.4-1.425-1.032c-0.259-0.787,0.169-1.636,0.955-1.895l5.93-1.957 c0.784-0.258,1.634,0.169,1.894,0.956c0.259,0.788-0.168,1.636-0.955,1.896l-5.929,1.956C17.841,48.495,17.682,48.52,17.527,48.52 z"/><path id="path-8_14_" d="M40.254,41.022c-0.63,0-1.216-0.4-1.424-1.032c-0.259-0.787,0.168-1.636,0.955-1.896l6.917-2.281 c0.784-0.26,1.635,0.168,1.895,0.955c0.259,0.788-0.169,1.636-0.956,1.896l-6.917,2.282C40.569,40.997,40.41,41.022,40.254,41.022 z"/><path id="path-9_12_" d="M54.088,36.458c-0.63,0-1.216-0.401-1.424-1.032c-0.259-0.787,0.168-1.636,0.955-1.895l5.987-1.975 l-0.873-2.651l-19.531,0.907c-0.825,0.039-1.529-0.602-1.568-1.429c-0.038-0.829,0.602-1.531,1.429-1.569l20.668-0.961 c0.667-0.029,1.284,0.39,1.494,1.03l1.7,5.158c0.259,0.788-0.169,1.636-0.955,1.896l-7.412,2.445 C54.403,36.433,54.244,36.458,54.088,36.458z"/><path id="path-10_10_" d="M3.199,53.246c-0.232,0-0.464-0.053-0.675-0.16c-0.355-0.179-0.625-0.492-0.75-0.871l-1.699-5.158 c-0.207-0.627,0.022-1.317,0.562-1.698l17.451-12.287c0.679-0.477,1.613-0.313,2.09,0.364c0.477,0.679,0.314,1.615-0.363,2.092 L3.273,47.175l0.881,2.675l5.987-1.975c0.784-0.26,1.634,0.168,1.894,0.955c0.259,0.788-0.168,1.637-0.955,1.896l-7.411,2.445 C3.516,53.221,3.357,53.246,3.199,53.246z"/><path id="path-11_10_" d="M50.792,40.419c-1.912,0-3.599-1.222-4.198-3.04c-0.763-2.316,0.499-4.823,2.814-5.586 c0.449-0.148,0.915-0.223,1.385-0.223c1.912,0,3.599,1.221,4.198,3.04c0.37,1.121,0.281,2.321-0.251,3.376 c-0.532,1.055-1.442,1.84-2.563,2.21C51.727,40.344,51.262,40.419,50.792,40.419z M50.793,34.572c-0.15,0-0.3,0.024-0.446,0.072 c-0.744,0.246-1.149,1.051-0.904,1.796c0.24,0.727,1.052,1.149,1.794,0.905c0.361-0.119,0.653-0.371,0.824-0.711 c0.171-0.339,0.2-0.724,0.081-1.085C51.949,34.964,51.407,34.572,50.793,34.572z"/><path id="path-12_9_" d="M14.802,52.478L14.802,52.478c-1.992,0-3.75-1.273-4.374-3.167c-0.795-2.413,0.521-5.025,2.932-5.821 c0.468-0.154,0.954-0.232,1.443-0.232c1.992,0,3.75,1.272,4.375,3.167c0.794,2.413-0.521,5.025-2.933,5.821 C15.777,52.4,15.291,52.478,14.802,52.478z M14.803,46.26c-0.17,0-0.339,0.027-0.503,0.082c-0.841,0.277-1.3,1.187-1.022,2.029 c0.27,0.823,1.192,1.299,2.027,1.024c0.842-0.278,1.3-1.189,1.023-2.03C16.111,46.704,15.497,46.26,14.803,46.26z"/><path id="path-13_7_" d="M21.198,28.007c-0.021,0-0.042-0.001-0.064-0.002c-0.827-0.034-1.471-0.734-1.435-1.562l0.515-12.263 c0.054-1.29,0.882-2.379,2.11-2.775c1.227-0.395,2.535,0.005,3.331,1.02l7.271,9.274c0.511,0.652,0.398,1.595-0.254,2.108 c-0.651,0.511-1.595,0.398-2.106-0.255l-7.272-9.273l-0.598,12.29C22.662,27.375,21.997,28.007,21.198,28.007z"/><path id="path-14_6_" d="M24.819,36.231c-0.42,0-0.811-0.266-0.95-0.688c-1.087-3.301,0.695-6.868,3.974-7.95 c1.586-0.523,3.287-0.392,4.786,0.37c1.494,0.761,2.606,2.054,3.129,3.644c0.173,0.525-0.112,1.091-0.637,1.264 c-0.525,0.174-1.089-0.112-1.262-0.637c-0.358-1.084-1.116-1.968-2.136-2.487c-1.02-0.519-2.174-0.609-3.254-0.253 c-2.231,0.737-3.442,3.169-2.7,5.423c0.173,0.525-0.112,1.091-0.637,1.264C25.028,36.215,24.923,36.231,24.819,36.231z"/></symbol>
    <symbol id="taxi" viewBox="0 0 62 62"><title>taxi</title><path id="path-1_4_" style="fill:#E56A77;" d="M17.119,15.49h32.986c5.513,0,9.906,19.32,9.583,28.024l-0.722,3.843 c-0.121,2.836-2.453,5.159-5.289,5.159H13.552c-2.838,0-5.171-2.439-5.289-5.276l-0.709-3.624 C7.231,38.109,11.607,15.49,17.119,15.49z"/><path id="path-2_4_" style="fill:#53ECF4;" d="M15.042,32.501c-0.181-3.002,2.271-12.009,5.359-12.009h26.422 c3.089,0,5.541,9.007,5.36,12.009H15.042z"/><path id="path-3_4_" style="fill:#81BDA4;" d="M12.5,52.516v3.002c0,1.651,1.35,3.002,3,3.002h4c1.657,0,3-1.344,3-3.002v-3.002 H12.5z"/><path id="path-4_4_" style="fill:#81BDA4;" d="M40.5,52.516v3.002c0,1.651,1.35,3.002,3,3.002h5c1.657,0,3-1.344,3-3.002v-3.002 H40.5z"/><path id="path-5_4_" style="fill:#81BDA4;" d="M22.5,15.49h19v-5.004c0-2.21-1.791-4.002-4-4.002h-11c-2.2,0-4,1.801-4,4.002 V15.49z"/><path id="path-6_4_" d="M50.677,52.516H10.552c-3.616,0-6.573-2.779-6.782-6.349l-0.69-3.648c-0.012-0.063-0.02-0.127-0.024-0.191 c-0.301-5.142,2.94-23.056,7.793-28.206c1.022-1.084,2.123-1.634,3.27-1.634h32.986c1.233,0,2.418,0.581,3.522,1.727 c4.726,4.909,7.844,20.433,7.56,28.104c-0.003,0.077-0.012,0.154-0.026,0.23l-0.703,3.615 C57.245,49.735,54.289,52.516,50.677,52.516z M6.046,42.06l0.691,3.65c0.013,0.071,0.022,0.144,0.025,0.217 c0.084,2.011,1.748,3.587,3.79,3.587h40.125c2.04,0,3.704-1.58,3.79-3.597c0.003-0.075,0.012-0.149,0.026-0.222l0.7-3.602 c0.225-7.075-2.736-21.65-6.726-25.794c-0.356-0.369-0.88-0.809-1.362-0.809H14.119c-0.276,0-0.673,0.252-1.087,0.692 C9.034,20.424,5.822,37.303,6.046,42.06z"/><path id="path-7_4_" d="M49.183,32.501H12.042c-0.794,0-1.45-0.619-1.497-1.411c-0.157-2.612,1.406-9.407,4.047-12.214 c0.865-0.92,1.81-1.386,2.809-1.386h26.423c0.999,0,1.944,0.466,2.809,1.386c2.641,2.807,4.204,9.602,4.047,12.214 C50.633,31.882,49.977,32.501,49.183,32.501z M13.616,29.5h33.993c-0.326-2.596-1.569-6.874-3.16-8.565 c-0.329-0.349-0.553-0.442-0.625-0.442H17.401c-0.072,0-0.296,0.093-0.625,0.442C15.185,22.625,13.942,26.903,13.616,29.5z"/><path id="path-8_3_" d="M55.5,41.507h-50c-0.829,0-1.5-0.672-1.5-1.501c0-0.829,0.671-1.501,1.5-1.501h50 c0.829,0,1.5,0.672,1.5,1.501C57,40.836,56.329,41.507,55.5,41.507z"/><path id="path-9_2_" d="M39,15.49H20c-0.829,0-1.5-0.672-1.5-1.501V8.984c0-3.035,2.467-5.504,5.5-5.504h11 c3.033,0,5.5,2.469,5.5,5.504v5.004C40.5,14.818,39.829,15.49,39,15.49z M21.5,12.488h16V8.984c0-1.379-1.122-2.501-2.5-2.501H24 c-1.378,0-2.5,1.122-2.5,2.501V12.488z"/><path id="path-10_2_" d="M48.304,45.583c0,1.658-1.343,3.002-3,3.002c-1.657,0-3-1.344-3-3.002c0-1.658,1.343-3.002,3-3.002 C46.961,42.582,48.304,43.926,48.304,45.583z"/><path id="path-11_2_" d="M17.778,45.583c0,1.658-1.343,3.002-3,3.002s-3-1.344-3-3.002c0-1.658,1.343-3.002,3-3.002 S17.778,43.926,17.778,45.583z"/><path id="path-12_2_" d="M60.5,34.502h-4c-0.829,0-1.5-0.671-1.5-1.501c0-0.829,0.671-1.501,1.5-1.501h4 c0.829,0,1.5,0.672,1.5,1.501C62,33.832,61.329,34.502,60.5,34.502z"/><path id="path-13_2_" d="M4.5,34.502h-3c-0.829,0-1.5-0.671-1.5-1.501C0,32.173,0.671,31.5,1.5,31.5h3 c0.829,0,1.5,0.672,1.5,1.501C6,33.832,5.329,34.502,4.5,34.502z"/><path id="path-14_1_" d="M17,58.52h-4c-2.482,0-4.5-2.02-4.5-4.503v-3.002c0-0.829,0.671-1.501,1.5-1.501h10 c0.829,0,1.5,0.672,1.5,1.501v3.002C21.5,56.5,19.481,58.52,17,58.52z M11.5,52.516v1.501c0,0.828,0.673,1.501,1.5,1.501h4 c0.827,0,1.5-0.673,1.5-1.501v-1.501H11.5z"/><path id="path-15_1_" d="M46,58.52h-5c-2.481,0-4.5-2.02-4.5-4.503v-3.002c0-0.829,0.671-1.501,1.5-1.501h11 c0.829,0,1.5,0.672,1.5,1.501v3.002C50.5,56.5,48.481,58.52,46,58.52z M39.5,52.516v1.501c0,0.828,0.673,1.501,1.5,1.501h5 c0.827,0,1.5-0.673,1.5-1.501v-1.501H39.5z"/></symbol>
    <symbol id="ferry" viewBox="0 0 63.044 63.044"><title>cargo-ship</title><path id="path-1_1_" style="fill:#FF917B;" d="M17.921,34.024V18.079c0-2.957,3.543-5.07,6.499-5.07h18.698 c2.956,0,4.803,2.113,4.803,5.07v15.945l0,0"/><path id="path-2_1_" style="fill:#81BDA4;" d="M26.921,4.002h12c1.105,0,2,0.897,2,2.002v7.005h-16V6.004 C24.921,4.903,25.822,4.002,26.921,4.002z"/><path id="path-3_1_" style="fill:#E56A77;" d="M41.745,31.678l-7.637-14.265l-7.639,14.225c-1.029,2.143-3.195,3.386-5.571,3.386 h-9.054c-3.097,0-5.136,3.39-3.805,6.188l9.369,19.567c0.699,1.47,2.179,2.265,3.805,2.265h25.113 c1.625,0,3.106-0.716,3.804-2.185l9.369-19.757c1.33-2.798-0.709-6.078-3.804-6.078h-8.377 C44.941,35.024,42.775,33.821,41.745,31.678z"/><path id="path-4_1_" d="M43.325,62.044H18.213c-2.339,0-4.267-1.12-5.159-2.997L3.688,39.612c-0.873-1.837-0.711-4.086,0.42-5.878 c1.072-1.698,2.843-2.712,4.736-2.712h9.054c1.965,0,3.503-0.856,4.219-2.348L29.79,14.68c0.263-0.482,0.769-0.67,1.318-0.67 c0.001,0,0.002,0,0.002,0c0.55,0,1.055,0.19,1.317,0.675l7.638,14.084c0.97,2.017,3.079,2.253,4.252,2.253h8.378 c1.937,0,3.728,1.004,4.791,2.687c1.092,1.731,1.23,3.847,0.368,5.661l-9.367,19.878C47.879,60.525,46.494,62.044,43.325,62.044z M8.844,34.024c-0.871,0-1.673,0.479-2.2,1.314c-0.586,0.928-0.682,2.069-0.25,2.977L15.76,57.75 c0.534,1.125,1.766,1.291,2.453,1.291h25.112c1.938,0,2.31-0.783,2.451-1.078l9.367-19.878c0.419-0.883,0.346-1.917-0.194-2.772 c-0.517-0.82-1.338-1.289-2.254-1.289h-8.378c-3.196,0-5.719-1.439-6.923-3.947l-6.291-11.643l-6.317,11.608 c-1.183,2.468-3.771,3.982-6.888,3.982H8.844z"/><path id="path-5_1_" d="M31.421,61.543c-0.828,0-1.5-0.672-1.5-1.501V16.011c0-0.829,0.672-1.501,1.5-1.501 c0.828,0,1.5,0.672,1.5,1.501v44.031C32.921,60.871,32.249,61.543,31.421,61.543z"/><path id="path-6_1_" d="M45.421,33.523c-0.828,0-1.5-0.671-1.5-1.501V16.078c0-2.206-1.741-4.07-3.802-4.07H21.42 c-2.228,0-4.499,2.054-4.499,4.07v15.944c0,0.83-0.672,1.501-1.5,1.501c-0.828,0-1.5-0.671-1.5-1.501V16.078 c0-3.701,3.574-7.072,7.499-7.072h18.699c3.687,0,6.802,3.239,6.802,7.072v15.944C46.921,32.852,46.249,33.523,45.421,33.523z"/><path id="path-7_1_" d="M38.421,12.008h-16c-0.828,0-1.5-0.672-1.5-1.501V3.502c0-1.931,1.571-3.502,3.5-3.502h12 c1.93,0,3.5,1.571,3.5,3.502v7.005C39.921,11.336,39.249,12.008,38.421,12.008z M23.921,9.006h13V3.502c0-0.271-0.228-0.5-0.5-0.5 h-12c-0.271,0-0.5,0.229-0.5,0.5V9.006z"/></symbol>
    <symbol id="tram" viewBox="0 0 63.545 63.545"><title>public-transport</title><path id="path-1_3_" style="fill:#81BDA4;" d="M25.364,17.041h17.31c2.893,0,5.189,14.121,5.02,18.688l-1.431,12.673 c-0.122,0.396-1.838,3.663-3.913,3.663H25.689c-2.076,0-3.792-1.618-3.913-3.691l-1.432-14.323 C20.175,31.161,22.471,17.041,25.364,17.041z"/><path id="path-2_3_" style="fill:#EDC951;" d="M25.663,32.051c-0.095-2.001,1.191-10.007,2.813-10.007h11.087 c1.621,0,2.907,8.006,2.812,10.007H25.663z"/><path id="path-3_3_" style="fill:#EDC951;" d="M43.056,39.922c0,1.304-1.056,2.362-2.359,2.362s-2.36-1.058-2.36-2.362 c0-1.304,1.057-2.361,2.36-2.361S43.056,38.618,43.056,39.922z"/><path id="path-4_3_" style="fill:#EDC951;" d="M29.771,39.922c0,1.304-1.056,2.362-2.359,2.362c-1.304,0-2.36-1.058-2.36-2.362 c0-1.304,1.056-2.361,2.36-2.361C28.715,37.561,29.771,38.618,29.771,39.922z"/><path id="path-5_3_" style="fill:#E56A77;" d="M28.145,2.869c-0.51,0-0.98,0.166-1.365,0.441 c-0.388-0.773-1.179-1.308-2.102-1.308c-1.303,0-2.359,1.057-2.359,2.361c0,0.924,0.535,1.715,1.307,2.103 c-0.275,0.386-0.44,0.856-0.44,1.366c0,1.304,2.359,4.096,2.359,4.096s2.359-2.792,2.359-4.096c0-0.091,0.149-0.24,0.241-0.24 c1.303,0,2.359-1.058,2.359-2.362S29.448,2.869,28.145,2.869z"/><path id="path-6_3_" d="M39.35,52.065H22.689c-2.97,0-5.246-2.042-5.411-4.854l-1.426-14.388 c-0.15-2.538,1.546-14.706,4.463-17.802c0.766-0.812,1.537-0.983,2.049-0.983h17.31c0.501,0,1.254,0.164,2.003,0.941 c3.064,3.183,4.652,15.875,4.516,19.554c-0.002,0.039-0.005,0.077-0.009,0.115l-1.431,12.548c-0.01,0.092-0.029,0.183-0.056,0.27 C44.529,48.013,42.455,52.065,39.35,52.065z M22.526,17.041c-1.653,1.32-3.877,12.248-3.684,15.546l1.427,14.388 c0.086,1.454,1.314,2.088,2.42,2.088H39.35c0.823,0,2.062-1.629,2.447-2.423l1.4-12.274c0.161-4.879-2.016-15.963-3.69-17.325 H22.526z"/><path id="path-7_3_" d="M39.375,32.051H22.663c-0.801,0-1.46-0.629-1.498-1.429c-0.075-1.579,0.787-8.831,2.697-10.836 c0.586-0.615,1.201-0.744,1.614-0.744h11.087c0.413,0,1.027,0.129,1.613,0.743c1.91,2.004,2.773,9.257,2.698,10.836 C40.836,31.422,40.176,32.051,39.375,32.051z M24.229,29.049h13.58c-0.235-2.311-0.993-5.945-1.662-7.005H25.891 C25.222,23.104,24.464,26.738,24.229,29.049z"/><path id="path-8_2_" d="M37.697,42.784c-2.129,0-3.86-1.733-3.86-3.863c0-2.129,1.731-3.862,3.86-3.862 c2.128,0,3.859,1.733,3.859,3.862C41.556,41.051,39.825,42.784,37.697,42.784z M37.697,38.061c-0.474,0-0.86,0.386-0.86,0.86 c0,0.475,0.386,0.861,0.86,0.861c0.473,0,0.859-0.386,0.859-0.861C38.556,38.447,38.17,38.061,37.697,38.061z"/><path id="path-9_1_" d="M24.412,42.784c-2.128,0-3.86-1.733-3.86-3.863c0-2.129,1.732-3.862,3.86-3.862s3.859,1.733,3.859,3.862 C28.271,41.051,26.54,42.784,24.412,42.784z M24.412,38.061c-0.474,0-0.86,0.386-0.86,0.86c0,0.475,0.386,0.861,0.86,0.861 c0.473,0,0.859-0.386,0.859-0.861C25.271,38.447,24.885,38.061,24.412,38.061z"/><path id="path-10_1_" d="M37.261,47.062h-14c-0.828,0-1.5-0.672-1.5-1.501c0-0.829,0.672-1.501,1.5-1.501h14 c0.829,0,1.5,0.672,1.5,1.501C38.761,46.39,38.09,47.062,37.261,47.062z"/><path id="path-11_1_" d="M40.261,59.07h-20c-0.828,0-1.5-0.672-1.5-1.501c0-0.829,0.672-1.501,1.5-1.501h20 c0.829,0,1.5,0.672,1.5,1.501C41.761,58.398,41.09,59.07,40.261,59.07z"/><path id="path-12_1_" d="M43.955,63.545c-0.503,0-0.995-0.253-1.278-0.713l-6.25-10.137c-0.435-0.706-0.217-1.631,0.489-2.066 c0.705-0.436,1.629-0.216,2.063,0.489l6.25,10.138c0.436,0.706,0.217,1.631-0.488,2.065 C44.495,63.473,44.223,63.545,43.955,63.545z"/><path id="path-13_1_" d="M17.563,63.545c-0.268,0-0.54-0.072-0.786-0.224c-0.705-0.434-0.923-1.359-0.489-2.065l6.25-10.138 c0.435-0.705,1.359-0.925,2.064-0.489c0.705,0.435,0.924,1.36,0.489,2.066l-6.249,10.137 C18.558,63.292,18.066,63.545,17.563,63.545z"/><path id="path-14" d="M23.261,17.041c-0.552,0-1-0.448-1-1.001v-5.004c0-0.552,0.448-1,1-1s1,0.448,1,1v5.004 C24.261,16.593,23.813,17.041,23.261,17.041z"/><path id="path-15" d="M23.545,11.928c-0.295,0-0.574-0.13-0.764-0.355c-0.609-0.72-2.595-3.191-2.595-4.742 c0-0.359,0.057-0.713,0.169-1.049c-0.654-0.623-1.036-1.488-1.036-2.42C19.319,1.509,20.826,0,22.678,0 c0.931,0,1.796,0.382,2.418,1.037c0.337-0.112,0.689-0.17,1.049-0.17c1.853,0,3.359,1.509,3.359,3.362 c0,1.631-1.166,2.994-2.707,3.299c-0.421,1.51-1.964,3.426-2.488,4.045C24.119,11.798,23.839,11.928,23.545,11.928z M22.678,2.002 c-0.749,0-1.359,0.61-1.359,1.36c0,0.512,0.289,0.975,0.756,1.209c0.26,0.131,0.451,0.37,0.522,0.653 c0.07,0.284,0.013,0.584-0.157,0.822c-0.166,0.234-0.254,0.506-0.254,0.785c0,0.381,0.58,1.414,1.359,2.478 c0.779-1.064,1.359-2.097,1.359-2.478c0-0.649,0.592-1.241,1.241-1.241c0.75,0,1.359-0.61,1.359-1.361 c0-0.75-0.609-1.36-1.359-1.36c-0.279,0-0.551,0.088-0.785,0.255c-0.237,0.17-0.536,0.227-0.821,0.156 c-0.283-0.07-0.522-0.261-0.653-0.522C23.652,2.291,23.189,2.002,22.678,2.002z"/></symbol>
    <symbol id="walk" viewBox="0 0 512 512"><title>step</title><path d="m150.566406 97.289062c-48.679687 0-88.140625 39.460938-88.140625 88.140626v.703124c0 57.050782 8.496094 113.785157 25.210938 168.332032 1.210937 3.953125 2.800781 7.710937 4.710937 11.246094 6.5625 2.367187 13.601563 3.652343 20.871094 3.652343 34.023438 0 61.605469-27.585937 61.605469-61.609375v-.746094c0-31.957031 5.902343-63.636718 17.402343-93.449218l4.992188-12.945313c5.398438-13.988281 8.164062-28.851562 8.164062-43.84375 0-18.746093-5.855468-36.125-15.832031-50.410156-11.753906-5.804687-24.988281-9.070313-38.984375-9.070313zm0 0" fill="#feda9b"/><path d="m245.203125 38.109375c0 13.699219-11.101563 24.800781-24.800781 24.800781-13.695313 0-24.800782-11.101562-24.800782-24.800781 0-13.695313 11.105469-24.796875 24.800782-24.796875 13.699218 0 24.800781 11.101562 24.800781 24.796875zm0 0" fill="#feda9b"/><path d="m29.097656 167.472656c-5.519531 0-9.996094-4.476562-9.996094-10v-.703125c0-5.523437 4.476563-9.996093 9.996094-9.996093 5.523438 0 10 4.472656 10 9.996093v.703125c0 5.523438-4.476562 10-10 10zm0 0"/><path d="m113.21875 379.363281c-31.671875 0-59.1875-20.347656-68.464844-50.628906-13.75-44.863281-22.066406-91.367187-24.71875-138.21875-.3125-5.511719 3.902344-10.234375 9.417969-10.546875 5.539063-.324219 10.234375 3.902344 10.546875 9.414062 2.5625 45.25 10.59375 90.164063 23.871094 133.492188 6.6875 21.828125 26.519531 36.492188 49.347656 36.492188 28.457031 0 51.609375-23.152344 51.609375-51.609376v-.75c0-33.3125 6.078125-65.964843 18.070313-97.046874l4.992187-12.941407c4.972656-12.890625 7.496094-26.433593 7.496094-40.25 0-43.085937-35.054688-78.144531-78.144531-78.144531-31.558594 0-59.851563 18.800781-72.078126 47.894531-2.136718 5.089844-8 7.480469-13.089843 5.339844-5.089844-2.136719-7.480469-8-5.34375-13.089844 15.351562-36.53125 50.882812-60.136719 90.507812-60.136719 54.117188 0 98.140625 44.023438 98.140625 98.136719 0 16.285157-2.972656 32.25-8.832031 47.445313l-4.996094 12.945312c-11.101562 28.773438-16.730469 59.003906-16.730469 89.847656v.75c.003907 39.480469-32.117187 71.605469-71.601562 71.605469zm0 0"/><path d="m146.625 19.996094c-2.640625 0-5.207031-1.070313-7.070312-2.929688-1.859376-1.871094-2.925782-4.4375-2.925782-7.070312 0-2.628906 1.066406-5.207032 2.925782-7.066406 1.863281-1.871094 4.429687-2.929688 7.070312-2.929688 2.628906 0 5.207031 1.058594 7.066406 2.929688 1.859375 1.859374 2.929688 4.429687 2.929688 7.066406 0 2.632812-1.070313 5.210937-2.929688 7.070312s-4.4375 2.929688-7.066406 2.929688zm0 0"/><path d="m91.90625 23.304688c-2.628906 0-5.207031-1.070313-7.066406-2.929688s-2.929688-4.4375-2.929688-7.066406c0-2.632813 1.070313-5.210938 2.929688-7.070313s4.4375-2.929687 7.066406-2.929687c2.640625 0 5.210938 1.070312 7.070312 2.929687 1.859376 1.859375 2.929688 4.4375 2.929688 7.070313 0 2.628906-1.070312 5.207031-2.929688 7.066406-1.859374 1.859375-4.429687 2.929688-7.070312 2.929688zm0 0"/><path d="m48.398438 44.71875c-2.628907 0-5.207032-1.070312-7.070313-2.929688-1.859375-1.859374-2.925781-4.4375-2.925781-7.066406s1.066406-5.210937 2.925781-7.070312c1.863281-1.859375 4.441406-2.929688 7.070313-2.929688 2.628906 0 5.207031 1.070313 7.066406 2.929688s2.929687 4.441406 2.929687 7.070312-1.066406 5.207032-2.929687 7.066406c-1.859375 1.859376-4.4375 2.929688-7.066406 2.929688zm0 0"/><path d="m9.996094 80.960938c-2.628906 0-5.207032-1.070313-7.066406-2.941407-1.859376-1.859375-2.929688-4.425781-2.929688-7.054687 0-2.640625 1.070312-5.21875 2.929688-7.082032 1.859374-1.859374 4.4375-2.917968 7.066406-2.917968 2.632812 0 5.210937 1.058594 7.070312 2.917968 1.859375 1.863282 2.929688 4.441407 2.929688 7.082032 0 2.628906-1.070313 5.207031-2.929688 7.054687-1.859375 1.871094-4.4375 2.941407-7.070312 2.941407zm0 0"/><path d="m220.34375 72.902344c-5.898438 0-11.871094-1.5-17.339844-4.65625-8.050781-4.644532-13.808594-12.152344-16.214844-21.128906-2.402343-8.976563-1.167968-18.355469 3.476563-26.402344 9.597656-16.617188 30.917969-22.332032 47.535156-12.738282 8.050781 4.644532 13.808594 12.152344 16.214844 21.128907 2.40625 8.976562 1.171875 18.355469-3.476563 26.40625-6.4375 11.148437-18.160156 17.390625-30.195312 17.390625zm-12.761719-42.191406c-1.976562 3.421874-2.5 7.414062-1.476562 11.230468 1.023437 3.820313 3.472656 7.011719 6.894531 8.988282 7.070312 4.085937 16.140625 1.652343 20.222656-5.417969 1.976563-3.421875 2.5-7.410157 1.476563-11.230469-1.019531-3.820312-3.472657-7.011719-6.894531-8.988281-7.066407-4.082031-16.140626-1.652344-20.222657 5.417969zm0 0"/><path d="m461.21875 316.28125c6.191406-23.109375 2.59375-46.535156-8.242188-65.882812-7.105468-4.371094-14.953124-7.808594-23.425781-10.078126-47.019531-12.597656-95.351562 15.304688-107.949219 62.328126-3.882812 14.480468-5.054687 29.554687-3.464843 44.464843l1.472656 13.792969c3.394531 31.777344.894531 63.902344-7.375 94.769531l-.195313.722657c-3.671874 13.707031-2.40625 27.570312 2.6875 39.71875 3.238282 1.515624 6.644532 2.785156 10.21875 3.742187 26.148438 7.007813 53.808594-3.878906 68.171876-26.828125 30.261718-48.363281 53.152343-100.964844 67.921874-156.070312zm0 0" fill="#feda9b"/><path d="m331.945312 152.152344c0 13.695312-11.101562 24.800781-24.800781 24.800781-13.695312 0-24.800781-11.105469-24.800781-24.800781 0-13.695313 11.105469-24.800782 24.800781-24.800782 13.699219 0 24.800781 11.105469 24.800781 24.800782zm0 0" fill="#feda9b"/><path d="m341.113281 512c-6.210937 0-12.507812-.808594-18.753906-2.484375-18.476563-4.949219-33.917969-16.796875-43.480469-33.363281-9.5625-16.5625-12.105468-35.859375-7.152344-54.335938l.191407-.71875c7.980469-29.792968 10.371093-60.453125 7.09375-91.121094l-1.472657-13.792968c-1.730468-16.195313-.46875-32.382813 3.746094-48.113282 14.007813-52.273437 67.921875-83.402343 120.195313-69.398437 52.269531 14.007813 83.402343 67.925781 69.394531 120.195313l-.183594.6875c-15.035156 56.109374-38.285156 109.535156-69.101562 158.78125-13.367188 21.363281-36.269532 33.664062-60.476563 33.664062zm-42.21875-184.148438c3.535157 33.128907.957031 66.238282-7.664062 98.417969l-.191407.722657c-3.566406 13.316406-1.738281 27.222656 5.15625 39.164062 6.890626 11.9375 18.019532 20.476562 31.335938 24.046875 22.050781 5.90625 45-3.125 57.109375-22.476563 29.765625-47.5625 52.21875-99.15625 66.738281-153.355468l.1875-.683594c11.148438-41.617188-13.640625-84.550781-55.257812-95.703125-41.625-11.152344-84.554688 13.636719-95.707032 55.257813-3.578124 13.34375-4.648437 27.078124-3.179687 40.816406zm0 0"/><path d="m385.6875 154.082031c-2.628906 0-5.207031-1.070312-7.066406-2.929687s-2.929688-4.425782-2.929688-7.066406c0-2.628907 1.066406-5.210938 2.929688-7.070313 1.859375-1.859375 4.4375-2.929687 7.066406-2.929687s5.210938 1.070312 7.066406 2.929687c1.859375 1.859375 2.929688 4.441406 2.929688 7.070313 0 2.640624-1.066406 5.207031-2.929688 7.066406-1.855468 1.859375-4.4375 2.929687-7.066406 2.929687zm0 0"/><path d="m437.683594 171.449219c-2.640625 0-5.207032-1.070313-7.078125-2.929688-1.859375-1.859375-2.917969-4.4375-2.917969-7.066406 0-2.632813 1.058594-5.210937 2.917969-7.070313 1.859375-1.859374 4.4375-2.929687 7.078125-2.929687 2.628906 0 5.199218 1.070313 7.058594 2.929687 1.871093 1.859376 2.941406 4.4375 2.941406 7.070313 0 2.628906-1.070313 5.207031-2.941406 7.066406-1.859376 1.859375-4.429688 2.929688-7.058594 2.929688zm0 0"/><path d="m474.167969 203.390625c-2.632813 0-5.210938-1.070313-7.070313-2.929687-1.859375-1.859376-2.929687-4.4375-2.929687-7.066407 0-2.628906 1.070312-5.210937 2.929687-7.070312s4.429688-2.929688 7.070313-2.929688c2.628906 0 5.207031 1.070313 7.066406 2.929688s2.929687 4.441406 2.929687 7.070312c0 2.628907-1.070312 5.207031-2.929687 7.066407-1.859375 1.859374-4.4375 2.929687-7.066406 2.929687zm0 0"/><path d="m501.878906 248.332031c-2.628906 0-5.207031-1.0625-7.066406-2.921875-1.859375-1.867187-2.929688-4.449218-2.929688-7.078125 0-2.628906 1.066407-5.199219 2.929688-7.066406 1.859375-1.859375 4.4375-2.929687 7.066406-2.929687s5.210938 1.070312 7.066406 2.929687c1.859376 1.867187 2.933594 4.4375 2.933594 7.066406 0 2.628907-1.070312 5.210938-2.933594 7.078125-1.855468 1.859375-4.4375 2.921875-7.066406 2.921875zm0 0"/><path d="m307.089844 186.964844c-6.03125 0-11.980469-1.582032-17.34375-4.675782-8.050782-4.648437-13.808594-12.152343-16.214844-21.128906-4.964844-18.535156 6.074219-37.652344 24.605469-42.621094 8.980469-2.40625 18.355469-1.171874 26.40625 3.476563s13.808593 12.152344 16.214843 21.128906c4.964844 18.535157-6.074218 37.652344-24.609374 42.621094-2.996094.800781-6.039063 1.199219-9.058594 1.199219zm.078125-49.621094c-1.285157 0-2.578125.167969-3.851563.511719-7.886718 2.109375-12.582031 10.242187-10.46875 18.128906 1.023438 3.816406 3.472656 7.011719 6.894532 8.988281 3.425781 1.976563 7.414062 2.503906 11.230468 1.476563 7.886719-2.109375 12.582032-10.242188 10.46875-18.128907-1.019531-3.816406-3.472656-7.011718-6.894531-8.988281-2.28125-1.316406-4.8125-1.988281-7.378906-1.988281zm0 0"/><path d="m422.414062 316.609375c-.855468 0-1.726562-.109375-2.597656-.34375-5.332031-1.429687-8.496094-6.914063-7.0625-12.246094l.1875-.707031c2.578125-9.621094 1.308594-19.730469-3.578125-28.460938-2.699219-4.816406-.976562-10.910156 3.839844-13.605468 4.820313-2.695313 10.910156-.976563 13.605469 3.839844 7.449218 13.304687 9.382812 28.71875 5.445312 43.40625l-.1875.710937c-1.199218 4.460937-5.238281 7.40625-9.652344 7.40625zm-33.761718-59.625c-.867188 0-1.746094-.113281-2.625-.351563-.003906 0-.097656-.027343-.101563-.027343-5.332031-1.445313-8.476562-6.9375-7.03125-12.269531 1.445313-5.328126 6.9375-8.472657 12.265625-7.027344l.105469.027344c5.328125 1.445312 8.476563 6.9375 7.03125 12.269531-1.210937 4.449219-5.242187 7.378906-9.644531 7.378906zm0 0"/></symbol>
</svg>
