<svg viewBox="0 0 48 48" xmlns="http://www.w3.org/2000/svg">
  <defs>

    <g id="walk">
        <path style=" fill:#FFB74D;" d="M 34.515625 28.023438 C 34.359375 28.023438 34.199219 28 34.039063 27.949219 L 28.523438 25.425781 C 28.074219 25.273438 27.722656 24.921875 27.574219 24.472656 L 24 16 C 23.738281 15.214844 25.054688 14.710938 25.84375 14.449219 C 26.628906 14.191406 27.476563 14.617188 27.738281 15.402344 L 30.1875 22.816406 L 34.988281 25.101563 C 35.777344 25.363281 36.199219 26.214844 35.9375 27 C 35.726563 27.628906 35.144531 28.023438 34.515625 28.023438 Z "></path>
        <path style=" fill:#606FC4;" d="M 26.789063 22.605469 L 29.644531 21.175781 L 27.734375 15.402344 C 27.476563 14.617188 26.628906 14.191406 25.84375 14.449219 C 25.054688 14.710938 23.738281 15.214844 24 16 Z "></path>
        <path style=" fill:#FFB74D;" d="M 26.5 4 C 28.433594 4 30 5.566406 30 7.5 C 30 9.433594 28.433594 11 26.5 11 C 24.566406 11 23 9.433594 23 7.5 C 23 5.566406 24.566406 4 26.5 4 "></path>
        <path style=" fill:#B2AEAD;" d="M 13 44 C 12.546875 44 12.09375 43.847656 11.71875 43.535156 C 10.871094 42.828125 10.757813 41.566406 11.464844 40.71875 L 16.203125 35.035156 L 19.085938 25.425781 C 19.402344 24.367188 20.519531 23.765625 21.574219 24.085938 C 22.632813 24.402344 24.316406 25.941406 24 27 L 19.914063 36.574219 C 19.839844 36.832031 19.710938 37.074219 19.535156 37.28125 L 14.535156 43.28125 C 14.140625 43.753906 13.570313 44 13 44 Z "></path>
        <path style=" fill:#7E8CCF;" d="M 22.003906 30.5 C 21.796875 30.5 21.585938 30.480469 21.375 30.441406 C 19.472656 30.097656 18.210938 28.273438 18.558594 26.375 L 21.058594 15.875 C 21.402344 13.972656 23.222656 12.707031 25.125 13.058594 C 27.027344 13.402344 28.289063 15.226563 27.941406 17.125 L 25.441406 27.625 C 25.136719 29.316406 23.664063 30.5 22.003906 30.5 Z "></path>
        <path style=" fill:#FFB74D;" d="M 13.515625 29 C 13.441406 29 13.367188 28.992188 13.289063 28.984375 C 12.472656 28.859375 11.90625 28.09375 12.03125 27.273438 L 13.609375 19.742188 C 13.671875 19.359375 13.875 19.015625 14.183594 18.777344 L 20.992188 13.558594 C 22 13 23 13 24.609375 13 C 25.4375 13 23.65625 16.496094 23 17 L 16.484375 20.792969 L 14.996094 27.726563 C 14.882813 28.46875 14.242188 29 13.515625 29 Z "></path>
        <path style=" fill:#D2CCC9;" d="M 29.296875 34.734375 C 29.277344 34.703125 29.253906 34.675781 29.230469 34.644531 L 25.300781 28.144531 C 25.355469 27.976563 25.410156 27.804688 25.441406 27.625 L 25.503906 27.375 L 18.722656 25.679688 L 18.554688 26.375 C 18.3125 27.707031 18.871094 28.992188 19.878906 29.765625 L 26 37 L 29.335938 43.109375 C 29.722656 43.6875 30.355469 44 31.003906 44 C 31.382813 44 31.769531 43.890625 32.109375 43.664063 C 33.027344 43.050781 33.277344 41.808594 32.664063 40.890625 Z "></path>
        <path style=" fill:#7E8CCF;" d="M 24.609375 13 C 23 13 22 13 20.992188 13.558594 L 16.6875 16.859375 L 18.769531 19.464844 L 23 17 C 23.65625 16.496094 25.4375 13 24.609375 13 Z "></path>
    </g>

    <g id="bike">
        <path style="fill:#CFD8DC;" d="M36,24h2v16h-2V24z"></path>
        <path style="fill:#CFD8DC;" d="M10,24h2v16h-2V24z"></path>
        <path style="fill:#CFD8DC;" d="M3,31h16v2H3V31z"></path>
        <path style="fill:#CFD8DC;" d="M6,38.4l-1.4-1.4l11.3-11.3l1.4,1.4L6,38.4z"></path>
        <path style="fill:#CFD8DC;" d="M17.4,36.9l-1.4,1.4L4.6,27.1l1.4-1.4L17.4,36.9z"></path>
        <path style="fill:#CFD8DC;" d="M29,31h16v2H29V31z"></path>
        <path style="fill:#CFD8DC;" d="M32.1,38.4l-1.4-1.4l11.3-11.3l1.4,1.4L32.1,38.4z"></path>
        <path style="fill:#CFD8DC;" d="M43.4,36.9l-1.4,1.4L30.6,27.1l1.4-1.4L43.4,36.9z"></path>
        <path style="fill:#607D8B;" d="M11,41c-5,0-9-4-9-9s4-9,9-9s9,4,9,9S16,41,11,41z M11,25c-3.9,0-7,3.1-7,7s3.1,7,7,7s7-3.1,7-7   S14.9,25,11,25z"></path>
        <path style="fill:#607D8B;" d="M37,41c-5,0-9-4-9-9s4-9,9-9s9,4,9,9S42,41,37,41z M37,25c-3.9,0-7,3.1-7,7s3.1,7,7,7s7-3.1,7-7   S40.9,25,37,25z"></path>
        <path style="fill:#F50057;" d="M37,33c-0.4,0-0.7-0.2-0.9-0.5c-6-11-8-21.8-8.1-22.3c-0.1-0.3,0-0.6,0.3-0.9   C28.5,9.1,28.8,9,29.1,9c0,0,3.7,0.5,5-1.6c0.3-0.5,0.9-0.6,1.4-0.3c0.5,0.3,0.6,0.9,0.3,1.4c-1.4,2.1-4,2.5-5.6,2.5   c0.7,3.2,2.9,11.9,7.6,20.5c0.3,0.5,0.1,1.1-0.4,1.4C37.3,33,37.2,33,37,33z"></path>
        <path style="fill:#F50057;" d="M23,33H11c-0.3,0-0.6-0.2-0.8-0.4c-0.2-0.3-0.2-0.6-0.1-0.9l6-14c0.2-0.4,0.5-0.6,0.9-0.6h14   c0.6,0,1,0.4,1,1v1c0,0.2-0.1,0.4-0.1,0.5l-8,13C23.7,32.8,23.3,33,23,33z M12.5,31h9.9l7.4-12H17.7L12.5,31z"></path>
        <path style="fill:#F50057;" d="M23,33c-0.4,0-0.8-0.2-0.9-0.6l-7-18c-0.2-0.5,0.1-1.1,0.6-1.3c0.5-0.2,1.1,0.1,1.3,0.6l7,18   c0.2,0.5-0.1,1.1-0.6,1.3C23.2,33,23.1,33,23,33z"></path>
        <path style="fill:#455A64;" d="M35.6,7.2c-0.5-0.3-1.1-0.2-1.4,0.3c-0.6,0.8-1.5,1.2-2.4,1.4l0.5,1.9c1.3-0.3,2.7-0.9,3.6-2.3   C36.1,8.1,36,7.5,35.6,7.2z"></path>
        <path style="fill:#AD1457;" d="M26,33c0,1.7-1.3,3-3,3s-3-1.3-3-3s1.3-3,3-3S26,31.3,26,33z"></path>
        <path style="fill:#AD1457;" d="M13,32c0,1.1-0.9,2-2,2s-2-0.9-2-2s0.9-2,2-2S13,30.9,13,32z"></path>
        <path style="fill:#AD1457;" d="M23,30H11v4l12,2V30z"></path>
        <path style="fill:#880E4F;" d="M20,13c-3,0-5,2-6.5,2S12,13.5,12,13.5v-1c0-0.8,0.7-1.5,1.5-1.5H20c0,0,1,0,1,1C21,12,21,13,20,13z   "></path>
    </g>

    <g id="car">
        <path style=" fill:#455A64;" d="M 11 32 C 11 31.445313 10.554688 31 10 31 L 6 31 C 5.445313 31 5 31.445313 5 32 L 5 38 C 5 38.554688 5.445313 39 6 39 L 10 39 C 10.554688 39 11 38.554688 11 38 Z "></path>
        <path style=" fill:#455A64;" d="M 43 32 C 43 31.445313 42.554688 31 42 31 L 38 31 C 37.445313 31 37 31.445313 37 32 L 37 38 C 37 38.554688 37.445313 39 38 39 L 42 39 C 42.554688 39 43 38.554688 43 38 Z "></path>
        <path style=" fill:#AB47BC;" d="M 44 20 L 4 20 C 3.445313 20 3 20.445313 3 21 L 3 23 C 3 23.554688 3.445313 24 4 24 L 44 24 C 44.554688 24 45 23.554688 45 23 L 45 21 C 45 20.445313 44.554688 20 44 20 Z "></path>
        <path style=" fill:#AB47BC;" d="M 41 23 L 39 22.003906 C 38.664063 22.003906 9.332031 22 9 22 L 7 23 C 5.894531 23 5 24.894531 5 26 L 5 34 C 5 34.554688 5.445313 35 6 35 L 42 35 C 42.554688 35 43 34.554688 43 34 L 43 26 C 43 24.894531 42.105469 23 41 23 Z "></path>
        <path style=" fill:#AB47BC;" d="M 39.785156 23.003906 C 39.644531 22.113281 39.402344 20.71875 39 18.5 C 38 13 36.089844 9 32.5 9 L 15.5 9 C 11.910156 9 9.9375 13.5 9 18.5 C 8.59375 20.675781 8.351563 22.09375 8.207031 23.003906 Z "></path>
        <path style=" fill:#212121;" d="M 41 31 C 41 31.554688 40.554688 32 40 32 L 8 32 C 7.445313 32 7 31.554688 7 31 L 7 28 C 7 27.445313 7.445313 27 8 27 L 40 27 C 40.554688 27 41 27.445313 41 28 Z "></path>
        <path style=" fill:#FFEB3B;" d="M 11 29.5 C 11 30.328125 10.328125 31 9.5 31 C 8.671875 31 8 30.328125 8 29.5 C 8 28.671875 8.671875 28 9.5 28 C 10.328125 28 11 28.671875 11 29.5 Z "></path>
        <path style=" fill:#FFEB3B;" d="M 40 29.5 C 40 30.328125 39.328125 31 38.5 31 C 37.671875 31 37 30.328125 37 29.5 C 37 28.671875 37.671875 28 38.5 28 C 39.328125 28 40 28.671875 40 29.5 Z "></path>
        <path style=" fill:#E3F2FD;" d="M 37.03125 18.855469 C 36.148438 14 34.855469 11 32.5 11 L 15.5 11 C 13.3125 11 11.816406 14.339844 10.964844 18.867188 C 10.71875 20.179688 10.535156 21.199219 10.398438 22 L 37.589844 22 C 37.453125 21.207031 37.273438 20.1875 37.03125 18.855469 Z "></path>
        <path style=" fill:#FFB74D;" d="M 16.5 21 C 14.570313 21 13 19.433594 13 17.5 C 13 15.566406 14.570313 14 16.5 14 C 18.429688 14 20 15.566406 20 17.5 C 20 19.433594 18.429688 21 16.5 21 "></path>
        <path style=" fill:#FFB74D;" d="M 30.5 21 C 28.570313 21 27 19.433594 27 17.5 C 27 15.566406 28.570313 14 30.5 14 C 32.429688 14 34 15.566406 34 17.5 C 34 19.433594 32.429688 21 30.5 21 "></path>
        <path style=" fill:#FFA726;" d="M 23.5 17.5 C 22.121094 17.5 21 16.378906 21 15 C 21 13.621094 22.121094 12.5 23.5 12.5 C 24.878906 12.5 26 13.621094 26 15 C 26 16.378906 24.878906 17.5 23.5 17.5 "></path>
    </g>

    <g id="train">
        <path style=" fill:#607D8B;" d="M 14.285156 45.003906 L 18.460938 37.484375 L 16.714844 36.515625 L 12 45.003906 Z "></path>
        <path style=" fill:#607D8B;" d="M 33.714844 45.003906 L 29.539063 37.484375 L 31.285156 36.515625 L 36 45.003906 Z "></path>
        <path style=" fill:#4CAF50;" d="M 38 38 L 38 11.5 C 38 7.910156 35.089844 7 31.5 7 L 16.5 7 C 12.910156 7 10 7.910156 10 11.5 L 10 38 Z "></path>
        <path style=" fill:#388E3C;" d="M 24 3 C 21.792969 3 20 4.792969 20 7 C 20 9.207031 21.792969 11 24 11 C 26.207031 11 28 9.207031 28 7 C 28 4.792969 26.207031 3 24 3 Z "></path>
        <path style=" fill:#FFEB3B;" d="M 26 7 C 26 8.105469 25.105469 9 24 9 C 22.894531 9 22 8.105469 22 7 C 22 5.894531 22.894531 5 24 5 C 25.105469 5 26 5.894531 26 7 Z "></path>
        <path style=" fill:#37474F;" d="M 38 38 C 38 38 38 40 36 40 C 34 40 14 40 12 40 C 10 40 10 38 10 38 L 10 31 L 38 31 Z "></path>
        <path style=" fill:#37474F;" d="M 14 30 C 15.105469 30 16 30.894531 16 32 C 16 33.105469 15.105469 34 14 34 C 12.894531 34 12 33.105469 12 32 C 12 30.894531 12.894531 30 14 30 M 14 28 C 11.792969 28 10 29.792969 10 32 C 10 34.207031 11.792969 36 14 36 C 16.207031 36 18 34.207031 18 32 C 18 29.792969 16.207031 28 14 28 Z "></path>
        <path style=" fill:#37474F;" d="M 34 30 C 35.105469 30 36 30.894531 36 32 C 36 33.105469 35.105469 34 34 34 C 32.894531 34 32 33.105469 32 32 C 32 30.894531 32.894531 30 34 30 M 34 28 C 31.792969 28 30 29.792969 30 32 C 30 34.207031 31.792969 36 34 36 C 36.207031 36 38 34.207031 38 32 C 38 29.792969 36.207031 28 34 28 Z "></path>
        <path style=" fill:#0B420D;" d="M 34.5 12 L 25 12 L 25 21 L 34.5 21 C 35.328125 21 36 20.328125 36 19.5 L 36 13.5 C 36 12.671875 35.328125 12 34.5 12 Z "></path>
        <path style=" fill:#0B420D;" d="M 23 12 L 13.5 12 C 12.671875 12 12 12.671875 12 13.5 L 12 19.5 C 12 20.328125 12.671875 21 13.5 21 L 23 21 Z "></path>
        <path style=" fill:#C5CAE9;" d="M 16 32 C 16 33.105469 15.105469 34 14 34 C 12.894531 34 12 33.105469 12 32 C 12 30.894531 12.894531 30 14 30 C 15.105469 30 16 30.894531 16 32 Z "></path>
        <path style=" fill:#C5CAE9;" d="M 36 32 C 36 33.105469 35.105469 34 34 34 C 32.894531 34 32 33.105469 32 32 C 32 30.894531 32.894531 30 34 30 C 35.105469 30 36 30.894531 36 32 Z "></path>
    </g>

    <g id="tram">
        <rect x="25.8" y="5" transform="matrix(0.3165 -0.9486 0.9486 0.3165 14.1294 31.6099)" style="fill:#455A64;" width="6.3" height="2"></rect>
        <rect x="18" y="2.8" transform="matrix(0.9487 -0.3162 0.3162 0.9487 -0.9223 6.3162)" style="fill:#455A64;" width="2" height="6.3"></rect>
        <path style="fill:#455A64;" d="M35,5.5h-2C33,4.7,32.3,4,31.5,4h-15C15.7,4,15,4.7,15,5.5h-2C13,3.6,14.6,2,16.5,2h15   C33.4,2,35,3.6,35,5.5z"></path>
        <path style="fill:#607D8B;" d="M14.3,46l4.2-7.5l-1.7-1L12,46H14.3z"></path>
        <path style="fill:#607D8B;" d="M33.7,46l-4.2-7.5l1.7-1L36,46H33.7z"></path>
        <path style="fill:#CFD8DC;" d="M38,39V13.5C38,9.9,35.1,7,31.5,7h-15C12.9,7,10,9.9,10,13.5V39c0,0,0,2,2,2s22,0,24,0S38,39,38,39z   "></path>
        <path style="fill:#FF3D00;" d="M10,26v13c0,0,0,2,2,2s22,0,24,0s2-2,2-2V26H10z"></path>
        <path style="fill:#DD2C00;" d="M24,27c-2.2,0-4,1.8-4,4s1.8,4,4,4s4-1.8,4-4S26.2,27,24,27z"></path>
        <path style="fill:#F9FBE7;" d="M26,31c0,1.1-0.9,2-2,2s-2-0.9-2-2s0.9-2,2-2S26,29.9,26,31z"></path>
        <path style="fill:#90A4AE;" d="M30,10c0,0.6-0.4,1-1,1H19c-0.6,0-1-0.4-1-1c0-0.6,0.4-1,1-1h10C29.6,9,30,9.4,30,10z"></path>
        <path style="fill:#911F05;" d="M18,36h12v3H18V36z"></path>
        <path style="fill:#455A64;" d="M17,13h-3.5c-0.8,0-1.5,0.7-1.5,1.5v8c0,0.8,0.7,1.5,1.5,1.5H17V13z"></path>
        <path style="fill:#455A64;" d="M19,13h10v11H19V13z"></path>
        <path style="fill:#455A64;" d="M34.5,13H31v11h3.5c0.8,0,1.5-0.7,1.5-1.5v-8C36,13.7,35.3,13,34.5,13z"></path>
    </g>

    <g id="bus">
        <path style=" fill:#455A64;" d="M 16 36 C 16 35.445313 15.554688 35 15 35 L 11 35 C 10.445313 35 10 35.445313 10 36 L 10 42 C 10 42.554688 10.445313 43 11 43 L 15 43 C 15.554688 43 16 42.554688 16 42 Z "></path>
        <path style=" fill:#455A64;" d="M 38 36 C 38 35.445313 37.554688 35 37 35 L 33 35 C 32.445313 35 32 35.445313 32 36 L 32 42 C 32 42.554688 32.445313 43 33 43 L 37 43 C 37.554688 43 38 42.554688 38 42 Z "></path>
        <path style=" fill:#FFC107;" d="M 37.5 4 L 10.5 4 C 9.117188 4 8 5.117188 8 6.5 L 8 37 C 8 37 8 39 10 39 C 12 39 36 39 38 39 C 40 39 40 37 40 37 L 40 6.5 C 40 5.117188 38.882813 4 37.5 4 Z "></path>
        <path style=" fill:#FFC107;" d="M 10 22.5 C 10 23.328125 9.328125 24 8.5 24 L 7.5 24 C 6.671875 24 6 23.328125 6 22.5 L 6 19.5 C 6 18.671875 6.671875 18 7.5 18 L 8.5 18 C 9.328125 18 10 18.671875 10 19.5 Z "></path>
        <path style=" fill:#FFC107;" d="M 42 22.5 C 42 23.328125 41.328125 24 40.5 24 L 39.5 24 C 38.671875 24 38 23.328125 38 22.5 L 38 19.5 C 38 18.671875 38.671875 18 39.5 18 L 40.5 18 C 41.328125 18 42 18.671875 42 19.5 Z "></path>
        <path style=" fill:#FFF8E1;" d="M 16 32.5 C 16 33.878906 14.878906 35 13.5 35 C 12.121094 35 11 33.878906 11 32.5 C 11 31.121094 12.121094 30 13.5 30 C 14.878906 30 16 31.121094 16 32.5 Z "></path>
        <path style=" fill:#FFF8E1;" d="M 37 32.5 C 37 33.878906 35.878906 35 34.5 35 C 33.121094 35 32 33.878906 32 32.5 C 32 31.121094 33.121094 30 34.5 30 C 35.878906 30 37 31.121094 37 32.5 Z "></path>
        <path style=" fill:#9FA8DA;" d="M 36.5 6 L 11.5 6 C 10.671875 6 10 6.671875 10 7.5 L 10 23.5 C 10 24.882813 11.117188 26 12.5 26 L 35.5 26 C 36.882813 26 38 24.882813 38 23.5 L 38 7.5 C 38 6.671875 37.328125 6 36.5 6 Z "></path>
        <path style=" fill:#263238;" d="M 38 12 L 10 12 L 10 7.5 C 10 6.671875 10.671875 6 11.5 6 L 36.5 6 C 37.328125 6 38 6.671875 38 7.5 Z "></path>
        <path style=" fill:#64DD17;" d="M 12 8 L 23 8 L 23 10 L 12 10 Z "></path>
        <path style=" fill:#64DD17;" d="M 25 8 L 29 8 L 29 10 L 25 10 Z "></path>
        <path style=" fill:#7986CB;" d="M 21 26 L 13 26 L 13 18.5 C 13 17.671875 13.671875 17 14.5 17 L 19.5 17 C 20.328125 17 21 17.671875 21 18.5 Z "></path>
        <path style=" fill:#7986CB;" d="M 35 26 L 27 26 L 27 18.5 C 27 17.671875 27.671875 17 28.5 17 L 33.5 17 C 34.328125 17 35 17.671875 35 18.5 Z "></path>
        <path style=" fill:#3949AB;" d="M 28.429688 26 C 28.164063 25.703125 28 25.363281 28 25 C 28 23.914063 29.375 23 31 23 C 32.625 23 34 23.914063 34 25 C 34 25.363281 33.835938 25.703125 33.570313 26 L 35.820313 26 C 35.925781 25.679688 36 25.347656 36 25 C 36 22.792969 33.757813 21 31 21 C 28.242188 21 26 22.792969 26 25 C 26 25.347656 26.074219 25.679688 26.179688 26 Z "></path>
    </g>

    <g id="subway">
        <path style=" fill:#455A64;" d="M 12 45 L 16.699219 36.5 L 18.398438 37.5 L 14.300781 45 Z M 36 45 L 31.300781 36.5 L 29.601563 37.5 L 33.800781 45 Z "></path>
        <path style=" fill:#B0BEC5;" d="M 40 38 C 40 38 40 40 38 40 C 30.300781 40 17.699219 40 10 40 C 8 40 8 38 8 38 L 8 10 C 8 7.601563 9.5 5.398438 11.800781 4.601563 L 15 3.398438 C 15.699219 3.101563 16.398438 3 17 3 L 31 3 C 31.699219 3 32.398438 3.101563 33 3.398438 L 36.300781 4.601563 C 38.601563 5.398438 40.101563 7.601563 40.101563 10 L 40.101563 38 Z "></path>
        <path style=" fill:#37474F;" d="M 36.199219 4.601563 L 33 3.398438 C 32.300781 3.101563 31.601563 3 31 3 L 17 3 C 16.300781 3 15.601563 3.101563 15 3.398438 L 11.699219 4.601563 C 11.101563 4.800781 10.5 5.199219 10.101563 5.601563 L 10.800781 21.5 C 10.898438 24.800781 13.199219 27.699219 16.398438 28.699219 C 21 30.300781 27.398438 30.699219 31.699219 28.699219 C 35.101563 27.199219 37.101563 24.800781 37.300781 21.5 L 38 5.601563 C 37.398438 5.199219 36.898438 4.800781 36.199219 4.601563 Z "></path>
        <path style=" fill:#455A64;" d="M 40 29 C 40 29 34.300781 33 30 33 C 25.699219 33 22.699219 33 18 33 C 13.300781 33 8 29 8 29 L 8 37 L 18 37 L 18 40 L 30 40 L 30 37 L 40 37 Z "></path>
        <path style=" fill:#212121;" d="M 18 35 L 30 35 L 30 38 L 18 38 Z "></path>
        <path style=" fill:#FFF9C4;" d="M 12 34.5 C 12 35.300781 11.300781 36 10.5 36 C 9.699219 36 9 35.300781 9 34.5 C 9 33.699219 9.699219 33 10.5 33 C 11.300781 33 12 33.699219 12 34.5 Z M 37.5 33 C 36.699219 33 36 33.699219 36 34.5 C 36 35.300781 36.699219 36 37.5 36 C 38.300781 36 39 35.300781 39 34.5 C 39 33.699219 38.300781 33 37.5 33 Z "></path>
        <path style=" " d="M 15.699219 5.199219 L 12.398438 6.398438 C 12.300781 6.398438 12.199219 6.5 12.101563 6.5 L 12.300781 9 L 35.800781 9 L 35.898438 6.601563 C 35.800781 6.601563 35.699219 6.5 35.601563 6.5 L 32.300781 5.300781 C 31.898438 5.101563 31.398438 5 31 5 L 17 5 C 16.601563 5 16.101563 5.101563 15.699219 5.199219 Z "></path>
        <path style=" " d="M 15.699219 5.199219 L 12.398438 6.398438 C 12.300781 6.398438 12.199219 6.5 12.101563 6.5 L 12.300781 9 L 35.800781 9 L 35.898438 6.601563 C 35.800781 6.601563 35.699219 6.5 35.601563 6.5 L 32.300781 5.300781 C 31.898438 5.101563 31.398438 5 31 5 L 17 5 C 16.601563 5 16.101563 5.101563 15.699219 5.199219 Z "></path>
        <path style=" fill:#546E7A;" d="M 19 11 L 29 11 L 29 27.398438 C 27.699219 27.699219 26.199219 27.898438 24.601563 27.898438 C 22.800781 27.898438 20.800781 27.699219 19 27.199219 Z M 31 11 L 31 26.699219 C 34.699219 25 35.199219 22.800781 35.199219 21.300781 L 35.699219 11 Z M 17 11 L 12.300781 11 L 12.699219 21.300781 C 12.800781 23.800781 14.5 25.898438 16.800781 26.699219 L 16.800781 11 Z "></path>
        <path style=" fill:#FF6D00;" d="M 19 6 L 29 6 L 29 8 L 19 8 Z "></path>
    </g>




    <g id="ferry">
        <path style=" fill:#455A64;" d="M 17 30 C 17 30.554688 16.550781 31 16 31 L 15 31 C 14.449219 31 14 30.554688 14 30 L 14 27 C 14 26.445313 14.449219 26 15 26 L 16 26 C 16.550781 26 17 26.445313 17 27 Z "></path>
        <path style=" fill:#455A64;" d="M 36 30 C 36 30.554688 35.554688 31 35 31 L 34 31 C 33.445313 31 33 30.554688 33 30 L 33 27 C 33 26.445313 33.445313 26 34 26 L 35 26 C 35.554688 26 36 26.445313 36 27 Z "></path>
        <path style=" fill:#AB47BC;" d="M 30 13 L 20 13 C 16.363281 13 15 20.472656 15 22 L 35 22 C 35 20.601563 34.078125 13 30 13 Z "></path>
        <path style=" fill:#AB47BC;" d="M 36 22 C 36 21.445313 35.554688 21 35 21 L 15 21 C 14.449219 21 14 21.445313 14 22 L 14 28 C 14 28.554688 14.449219 29 15 29 L 35 29 C 35.554688 29 36 28.554688 36 28 Z "></path>
        <path style=" fill:#AB47BC;" d="M 38 22 C 38 22.554688 37.554688 23 37 23 L 13 23 C 12.449219 23 12 22.554688 12 22 L 12 21 C 12 20.445313 12.449219 20 13 20 L 37 20 C 37.554688 20 38 20.445313 38 21 Z "></path>
        <path style=" fill:#3F51B5;" d="M 41 25 L 41 28.5 C 41 29.882813 39.882813 31 38.5 31 L 12.5 31 C 11.117188 31 10 29.882813 10 28.5 L 10 5 L 5 5 L 5 30.5 C 5 33.535156 7.460938 36 10.5 36 L 37.5 36 C 40.535156 36 43 33.535156 43 30.5 L 43 25 Z "></path>
        <path style=" fill:#90CAF9;" d="M 44 34 C 41 34 40 32 40 32 C 40 32 39 34 36 34 C 33 34 32 32 32 32 C 32 32 31 34 28 34 C 25 34 24 32 24 32 C 24 32 23 34 20 34 C 17 34 16 32 16 32 C 16 32 15 34 12 34 C 9 34 8 32 8 32 C 8 32 7 34 4 34 L 4 42 L 44 42 Z "></path>
        <path style=" fill:#2196F3;" d="M 44 38 C 41 38 40 36 40 36 C 40 36 39 38 36 38 C 33 38 32 36 32 36 C 32 36 31 38 28 38 C 25 38 24 36 24 36 C 24 36 23 38 20 38 C 17 38 16 36 16 36 C 16 36 15 38 12 38 C 9 38 8 36 8 36 C 8 36 7 38 4 38 L 4 42 L 44 42 Z "></path>
        <path style=" fill:#212121;" d="M 34.714844 26.429688 C 34.714844 26.746094 34.460938 27 34.144531 27 L 15.855469 27 C 15.539063 27 15.285156 26.746094 15.285156 26.429688 L 15.285156 24.714844 C 15.285156 24.398438 15.539063 24.144531 15.855469 24.144531 L 34.140625 24.144531 C 34.457031 24.144531 34.714844 24.398438 34.714844 24.714844 Z "></path>
        <path style=" fill:#FFEB3B;" d="M 17.570313 25.570313 C 17.570313 26.042969 17.1875 26.429688 16.714844 26.429688 C 16.242188 26.429688 15.855469 26.042969 15.855469 25.570313 C 15.855469 25.097656 16.242188 24.714844 16.714844 24.714844 C 17.1875 24.714844 17.570313 25.097656 17.570313 25.570313 Z "></path>
        <path style=" fill:#FFEB3B;" d="M 34.140625 25.570313 C 34.140625 26.042969 33.757813 26.429688 33.285156 26.429688 C 32.8125 26.429688 32.429688 26.042969 32.429688 25.570313 C 32.429688 25.097656 32.8125 24.714844 33.285156 24.714844 C 33.757813 24.714844 34.140625 25.097656 34.140625 25.570313 Z "></path>
        <path style=" fill:#283593;" d="M 13 12 L 10 15 L 5 15 L 5 5 L 13 5 Z "></path>
        <path style=" fill:#5C6BC0;" d="M 5 5 L 13 5 L 13 12 L 5 12 Z "></path>
        <path style=" fill:#E3F2FD;" d="M 32.769531 19.9375 C 32.347656 17.695313 31.359375 15 30 15 L 20 15 C 18.929688 15 17.832031 17.746094 17.3125 19.9375 Z "></path>
    </g>

    <g id="cablecar">
        <path style="fill:#64B5F6;" d="M35,44H13c0,0-3-4-3-12s3-12,3-12h22c0,0,3,4,3,12S35,44,35,44z"></path>
        <rect x="6.6" y="7.6" transform="matrix(0.9789 -0.2046 0.2046 0.9789 -1.2416 5.0902)" style="fill:#37474F;" width="34.7" height="2"></rect>
        <path style="fill:#FFC107;" d="M33.9,22c0.8,1.4,2.1,4.8,2.1,10c0,5.2-1.4,8.6-2.1,10H14.1c-0.8-1.4-2.1-4.8-2.1-10   c0-5.2,1.4-8.6,2.1-10H33.9 M35,20H13c0,0-3,4-3,12s3,12,3,12h22c0,0,3-4,3-12S35,20,35,20z"></path>
        <path style="fill:#FFC107;" d="M35,43H13l-2-10h26L35,43z"></path>
        <path style="fill:#455A64;" d="M32.6,24c0.6,1.5,1.4,4.2,1.4,8c0,3.8-0.8,6.5-1.4,8H15.4c-0.6-1.5-1.4-4.2-1.4-8   c0-3.8,0.8-6.5,1.4-8H32.6 M33.9,22H14.1c-0.8,1.4-2.1,4.8-2.1,10c0,5.2,1.4,8.6,2.1,10h19.7c0.8-1.4,2.1-4.8,2.1-10   C36,26.8,34.6,23.4,33.9,22z"></path>
        <path style="fill:#455A64;" d="M23,23h2v18h-2V23z"></path>
        <path style="fill:#90A4AE;" d="M31,20v-1c0-1.1-0.9-2-2-2H19c-1.1,0-2,0.9-2,2v1H31z"></path>
        <path style="fill:#90A4AE;" d="M23,6c0,1.1-0.9,2-2,2s-2-0.9-2-2s0.9-2,2-2S23,4.9,23,6z"></path>
        <path style="fill:#90A4AE;" d="M28,5c0,1.1-0.9,2-2,2s-2-0.9-2-2s0.9-2,2-2S28,3.9,28,5z"></path>
        <path style="fill:#90A4AE;" d="M23.3,7.6C24.4,8.8,26,11,26,14c0,2.8-1.7,3-2,3h-3v2h3c1.4,0,4-1,4-5c0-3-1.3-5.3-2.5-6.8L23.3,7.6   z"></path>
    </g>

    <g id="taxi">
        <path style=" fill:#FFEB3B;" d="M 29 12 C 29 12.550781 28.554688 13 28 13 L 20 13 C 19.449219 13 19 12.550781 19 12 L 19 9 C 19 8.449219 19.449219 8 20 8 L 28 8 C 28.554688 8 29 8.449219 29 9 Z "></path>
        <path style=" fill:#455A64;" d="M 19 10 L 21 10 L 21 12 L 19 12 Z "></path>
        <path style=" fill:#455A64;" d="M 21 8 L 23 8 L 23 10 L 21 10 Z "></path>
        <path style=" fill:#455A64;" d="M 23 10 L 25 10 L 25 12 L 23 12 Z "></path>
        <path style=" fill:#455A64;" d="M 25 8 L 27 8 L 27 10 L 25 10 Z "></path>
        <path style=" fill:#455A64;" d="M 27 10 L 29 10 L 29 12 L 27 12 Z "></path>
        <path style=" fill:#795548;" d="M 11 32 C 11 31.445313 10.554688 31 10 31 L 6 31 C 5.445313 31 5 31.445313 5 32 L 5 38 C 5 38.554688 5.445313 39 6 39 L 10 39 C 10.554688 39 11 38.554688 11 38 Z "></path>
        <path style=" fill:#795548;" d="M 43 32 C 43 31.445313 42.554688 31 42 31 L 38 31 C 37.445313 31 37 31.445313 37 32 L 37 38 C 37 38.554688 37.445313 39 38 39 L 42 39 C 42.554688 39 43 38.554688 43 38 Z "></path>
        <path style=" fill:#FFC107;" d="M 44 22 L 40.109375 22 C 40.109375 22 36.28125 14.488281 36 14 C 35.441406 13.027344 35 12 33 12 C 31 12 28 12 24 12 C 20.082031 12 17 12 15 12 C 13 12 12.640625 13 12 14 C 11.644531 14.558594 7.871094 22 7.871094 22 L 4 22 C 3.445313 22 3 22.445313 3 23 L 3 25 C 3 25.554688 3.445313 26 4 26 L 44 26 C 44.554688 26 45 25.554688 45 25 L 45 23 C 45 22.445313 44.554688 22 44 22 Z "></path>
        <path style=" fill:#FFC107;" d="M 41 23 C 41 23 32 22 24 22 C 16 22 7 23 7 23 C 5.894531 23 5 24.894531 5 26 L 5 34 C 5 34.554688 5.445313 35 6 35 L 42 35 C 42.554688 35 43 34.554688 43 34 L 43 26 C 43 24.894531 42.105469 23 41 23 Z "></path>
        <path style=" fill:#546E7A;" d="M 24 22 C 29.269531 22 34.960938 22.433594 38.238281 22.730469 C 36.78125 19.871094 34.488281 15.390625 34.265625 14.992188 L 34.148438 14.792969 C 33.703125 14 33.703125 14 33 14 C 31.125 14 27 14 24 14 C 21.015625 14 16.878906 14 15 14 C 14.347656 14 14.347656 14 13.914063 14.710938 C 13.839844 14.832031 13.765625 14.953125 13.683594 15.078125 C 13.429688 15.503906 11.476563 19.308594 9.742188 22.730469 C 13.019531 22.433594 18.71875 22 24 22 Z "></path>
        <path style=" fill:#37474F;" d="M 41 30 C 41 30.554688 40.554688 31 40 31 L 8 31 C 7.445313 31 7 30.554688 7 30 L 7 27 C 7 26.445313 7.445313 26 8 26 L 40 26 C 40.554688 26 41 26.445313 41 27 Z "></path>
        <path style=" fill:#4DD0E1;" d="M 11 28.5 C 11 29.328125 10.328125 30 9.5 30 C 8.671875 30 8 29.328125 8 28.5 C 8 27.671875 8.671875 27 9.5 27 C 10.328125 27 11 27.671875 11 28.5 Z "></path>
        <path style=" fill:#4DD0E1;" d="M 40 28.5 C 40 29.328125 39.328125 30 38.5 30 C 37.671875 30 37 29.328125 37 28.5 C 37 27.671875 37.671875 27 38.5 27 C 39.328125 27 40 27.671875 40 28.5 Z "></path>
    </g>

    <g id="flight">
        <path style="fill:#7986CB;" d="M34,25H14c-0.6,0-1-0.4-1-1s0.4-1,1-1h8.1L23,10.9c0-0.5,0.5-0.9,1-0.9s1,0.4,1,0.9L25.9,23H34   c0.6,0,1,0.4,1,1S34.6,25,34,25z"></path>
        <path style="fill:#9FA8DA;" d="M18,30v2c0,0.3-0.1,0.5-0.3,0.7S17.3,33,17,33s-8.5-0.3-16.4-4.1c-0.5-0.2-0.7-0.7-0.5-1.2   c0.2-0.5,0.6-0.8,1.1-0.7c0.1,0,10.3,2,15.8,2C17.6,29,18,29.4,18,30z M47.9,27.7c-0.2-0.5-0.6-0.8-1.1-0.7c-0.1,0-10.3,2-15.8,2   c-0.6,0-1,0.4-1,1v2c0,0.3,0.1,0.5,0.3,0.7S30.7,33,31,33s8.5-0.3,16.4-4.1C47.9,28.7,48.1,28.2,47.9,27.7z"></path>
        <path style="fill:#0D47A1;" d="M27,36h-6c-2.2,0-4-1.8-4-4v-3c0-1.6,1.4-3,3-3h8c1.6,0,3,1.4,3,3v3C31,34.2,29.2,36,27,36z"></path>
        <path style="fill:#C5CAE9;" d="M13,33.5c0,1.9-1.6,3.5-3.5,3.5S6,35.4,6,33.5S7.6,30,9.5,30S13,31.6,13,33.5z M24,22   c-3.9,0-7,3.1-7,7s5.3,7,7,7s7-3.1,7-7S27.9,22,24,22z M35,33.5c0,1.9,1.6,3.5,3.5,3.5s3.5-1.6,3.5-3.5S40.4,30,38.5,30   S35,31.6,35,33.5z"></path>
        <path style="fill:#263238;" d="M38.5,31c1.4,0,2.5,1.1,2.5,2.5S39.9,36,38.5,36S36,34.9,36,33.5S37.1,31,38.5,31z M9.5,31   C8.1,31,7,32.1,7,33.5S8.1,36,9.5,36c1.4,0,2.5-1.1,2.5-2.5S10.9,31,9.5,31z"></path>
        <path style="fill:#37474F;" d="M25,25h1.7c0.8,0,1.5,0.4,1.9,1.2L29,27h-4V25z M23,25h-1.7c-0.8,0-1.5,0.4-1.9,1.2L19,27h4V25z"></path>
        <path style="fill:#1565C0;" d="M30.9,28.2C29.1,29.2,26,31,24,31s-5.1-1.8-6.9-2.8c0,0.3-0.1,0.6-0.1,0.8c0,3.9,4.4,7,7,7   s7-3.1,7-7C31,28.7,31,28.4,30.9,28.2z"></path>
    </g>


  </defs>
</svg>
